Input #0, mov,mp4,m4a,3gp,3g2,mj2, from '/Users/aaronguo/Work/ag/aaron-studio/src/content/videos/2026-07-15-chatgpt-work-content-factory/chatgpt-work-content-factory-en-footage-v2.mp4':
  Metadata:
    major_brand     : isom
    minor_version   : 512
    compatible_brands: isomiso2avc1mp41
    encoder         : Lavf61.7.100
    comment         : Made with Remotion 4.0.427
  Duration: 00:00:42.05, start: 0.000000, bitrate: 1967 kb/s
  Stream #0:0[0x1](und): Video: h264 (High) (avc1 / 0x31637661), yuvj420p(pc, bt470bg/unknown/unknown, progressive), 1080x1920 [SAR 1:1 DAR 9:16], 1643 kb/s, 30 fps, 30 tbr, 90k tbn (default)
    Metadata:
      handler_name    : VideoHandler
      encoder         : Lavc61.19.100 libx264
    Side data:
      ICC Profile: (456 bytes)
  Stream #0:1[0x2](und): Audio: aac (LC) (mp4a / 0x6134706D), 48000 Hz, stereo, fltp, 317 kb/s (default)
    Metadata:
      handler_name    : SoundHandler
Stream mapping:
  Stream #0:0 -> #0:0 (h264 (native) -> wrapped_avframe (native))
  Stream #0:1 -> #0:1 (aac (native) -> pcm_s16le (native))
Press [q] to stop, [?] for help
[Parsed_ebur128_1 @ 0x782c71f80] t: 0.0999792  TARGET:-23 LUFS    M:-120.7 S:-120.7     I: -70.0 LUFS       LRA:   0.0 LU  FTPK: -25.6 -25.6 dBFS  TPK: -25.6 -25.6 dBFS
[Parsed_ebur128_1 @ 0x782c71f80] t: 0.199979   TARGET:-23 LUFS    M:-120.7 S:-120.7     I: -70.0 LUFS       LRA:   0.0 LU  FTPK:  -4.8  -4.8 dBFS  TPK:  -4.8  -4.8 dBFS
[Parsed_ebur128_1 @ 0x782c71f80] t: 0.299979   TARGET:-23 LUFS    M:-120.7 S:-120.7     I: -70.0 LUFS       LRA:   0.0 LU  FTPK:  -6.9  -6.9 dBFS  TPK:  -4.8  -4.8 dBFS
Output #0, null, to 'pipe:':
  Metadata:
    major_brand     : isom
    minor_version   : 512
    compatible_brands: isomiso2avc1mp41
    comment         : Made with Remotion 4.0.427
    encoder         : Lavf62.12.101
  Stream #0:0(und): Video: wrapped_avframe, yuvj420p(pc, bt470bg/unknown/unknown, progressive), 1080x1920 [SAR 1:1 DAR 9:16], q=2-31, 200 kb/s, 30 fps, 30 tbn (default)
    Metadata:
      encoder         : Lavc62.28.101 wrapped_avframe
      handler_name    : VideoHandler
    Side data:
      ICC Profile: (456 bytes)
  Stream #0:1(und): Audio: pcm_s16le, 48000 Hz, stereo, s16, 1536 kb/s (default)
    Metadata:
      encoder         : Lavc62.28.101 pcm_s16le
      handler_name    : SoundHandler
[Parsed_ebur128_1 @ 0x782c71f80] t: 0.399979   TARGET:-23 LUFS    M: -13.3 S:-120.7     I: -13.3 LUFS       LRA:   0.0 LU  FTPK:  -5.9  -5.9 dBFS  TPK:  -4.8  -4.8 dBFS
[Parsed_ebur128_1 @ 0x782c71f80] t: 0.499979   TARGET:-23 LUFS    M: -11.2 S:-120.7     I: -12.1 LUFS       LRA:   0.0 LU  FTPK:  -4.7  -4.7 dBFS  TPK:  -4.7  -4.7 dBFS
[Parsed_ebur128_1 @ 0x782c71f80] t: 0.599979   TARGET:-23 LUFS    M: -10.8 S:-120.7     I: -11.6 LUFS       LRA:   0.0 LU  FTPK:  -5.6  -5.6 dBFS  TPK:  -4.7  -4.7 dBFS
[Parsed_ebur128_1 @ 0x782c71f80] t: 0.699979   TARGET:-23 LUFS    M: -10.9 S:-120.7     I: -11.4 LUFS       LRA:   0.0 LU  FTPK:  -8.0  -8.0 dBFS  TPK:  -4.7  -4.7 dBFS
[Parsed_ebur128_1 @ 0x782c71f80] t: 0.799979   TARGET:-23 LUFS    M: -11.9 S:-120.7     I: -11.5 LUFS       LRA:   0.0 LU  FTPK: -10.0 -10.0 dBFS  TPK:  -4.7  -4.7 dBFS
[Parsed_ebur128_1 @ 0x782c71f80] t: 0.899979   TARGET:-23 LUFS    M: -14.2 S:-120.7     I: -11.9 LUFS       LRA:   0.0 LU  FTPK:  -9.5  -9.5 dBFS  TPK:  -4.7  -4.7 dBFS
[Parsed_ebur128_1 @ 0x782c71f80] t: 0.999979   TARGET:-23 LUFS    M: -15.3 S:-120.7     I: -12.2 LUFS       LRA:   0.0 LU  FTPK:  -4.8  -4.8 dBFS  TPK:  -4.7  -4.7 dBFS
[Parsed_ebur128_1 @ 0x782c71f80] t: 1.099979   TARGET:-23 LUFS    M: -14.5 S:-120.7     I: -12.5 LUFS       LRA:   0.0 LU  FTPK:  -6.0  -6.0 dBFS  TPK:  -4.7  -4.7 dBFS
[Parsed_ebur128_1 @ 0x782c71f80] t: 1.199979   TARGET:-23 LUFS    M: -14.1 S:-120.7     I: -12.6 LUFS       LRA:   0.0 LU  FTPK:  -7.0  -7.1 dBFS  TPK:  -4.7  -4.7 dBFS
[Parsed_ebur128_1 @ 0x782c71f80] t: 1.299979   TARGET:-23 LUFS    M: -13.4 S:-120.7     I: -12.7 LUFS       LRA:   0.0 LU  FTPK:  -8.5  -8.2 dBFS  TPK:  -4.7  -4.7 dBFS
[Parsed_ebur128_1 @ 0x782c71f80] t: 1.399979   TARGET:-23 LUFS    M: -14.3 S:-120.7     I: -12.8 LUFS       LRA:   0.0 LU  FTPK: -11.3 -11.4 dBFS  TPK:  -4.7  -4.7 dBFS
[Parsed_ebur128_1 @ 0x782c71f80] t: 1.499979   TARGET:-23 LUFS    M: -15.4 S:-120.7     I: -13.0 LUFS       LRA:   0.0 LU  FTPK:  -9.1  -8.9 dBFS  TPK:  -4.7  -4.7 dBFS
[Parsed_ebur128_1 @ 0x782c71f80] t: 1.599979   TARGET:-23 LUFS    M: -16.8 S:-120.7     I: -13.2 LUFS       LRA:   0.0 LU  FTPK: -13.1 -12.5 dBFS  TPK:  -4.7  -4.7 dBFS
[Parsed_ebur128_1 @ 0x782c71f80] t: 1.699979   TARGET:-23 LUFS    M: -18.3 S:-120.7     I: -13.4 LUFS       LRA:   0.0 LU  FTPK:  -9.7  -9.5 dBFS  TPK:  -4.7  -4.7 dBFS
[Parsed_ebur128_1 @ 0x782c71f80] t: 1.799979   TARGET:-23 LUFS    M: -18.1 S:-120.7     I: -13.6 LUFS       LRA:   0.0 LU  FTPK:  -8.4  -8.5 dBFS  TPK:  -4.7  -4.7 dBFS
[Parsed_ebur128_1 @ 0x782c71f80] t: 1.899979   TARGET:-23 LUFS    M: -18.7 S:-120.7     I: -13.8 LUFS       LRA:   0.0 LU  FTPK: -10.4 -10.3 dBFS  TPK:  -4.7  -4.7 dBFS
[Parsed_ebur128_1 @ 0x782c71f80] t: 1.999979   TARGET:-23 LUFS    M: -17.9 S:-120.7     I: -13.9 LUFS       LRA:   0.0 LU  FTPK:  -7.9  -7.9 dBFS  TPK:  -4.7  -4.7 dBFS
[Parsed_ebur128_1 @ 0x782c71f80] t: 2.099979   TARGET:-23 LUFS    M: -18.8 S:-120.7     I: -14.1 LUFS       LRA:   0.0 LU  FTPK: -17.9 -18.0 dBFS  TPK:  -4.7  -4.7 dBFS
[Parsed_ebur128_1 @ 0x782c71f80] t: 2.199979   TARGET:-23 LUFS    M: -20.4 S:-120.7     I: -14.3 LUFS       LRA:   0.0 LU  FTPK: -12.8 -12.6 dBFS  TPK:  -4.7  -4.7 dBFS
[Parsed_ebur128_1 @ 0x782c71f80] t: 2.299979   TARGET:-23 LUFS    M: -18.6 S:-120.7     I: -14.4 LUFS       LRA:   0.0 LU  FTPK:  -9.5  -9.3 dBFS  TPK:  -4.7  -4.7 dBFS
[Parsed_ebur128_1 @ 0x782c71f80] t: 2.399979   TARGET:-23 LUFS    M: -18.4 S:-120.7     I: -14.5 LUFS       LRA:   0.0 LU  FTPK:  -9.4  -9.4 dBFS  TPK:  -4.7  -4.7 dBFS
[Parsed_ebur128_1 @ 0x782c71f80] t: 2.499979   TARGET:-23 LUFS    M: -18.2 S:-120.7     I: -14.7 LUFS       LRA:   0.0 LU  FTPK: -15.7 -15.7 dBFS  TPK:  -4.7  -4.7 dBFS
[Parsed_ebur128_1 @ 0x782c71f80] t: 2.599979   TARGET:-23 LUFS    M: -18.3 S:-120.7     I: -14.8 LUFS       LRA:   0.0 LU  FTPK: -22.3 -22.6 dBFS  TPK:  -4.7  -4.7 dBFS
[Parsed_ebur128_1 @ 0x782c71f80] t: 2.699979   TARGET:-23 LUFS    M: -22.0 S:-120.7     I: -14.9 LUFS       LRA:   0.0 LU  FTPK: -44.2 -46.1 dBFS  TPK:  -4.7  -4.7 dBFS
[Parsed_ebur128_1 @ 0x782c71f80] t: 2.799979   TARGET:-23 LUFS    M: -28.1 S:-120.7     I: -14.9 LUFS       LRA:   0.0 LU  FTPK: -45.9 -46.3 dBFS  TPK:  -4.7  -4.7 dBFS
[Parsed_ebur128_1 @ 0x782c71f80] t: 2.899979   TARGET:-23 LUFS    M: -38.9 S:-120.7     I: -14.9 LUFS       LRA:   0.0 LU  FTPK: -44.2 -46.0 dBFS  TPK:  -4.7  -4.7 dBFS
[Parsed_ebur128_1 @ 0x782c71f80] t: 2.999979   TARGET:-23 LUFS    M: -53.3 S: -15.7     I: -14.9 LUFS       LRA:  20.0 LU  FTPK: -46.5 -45.8 dBFS  TPK:  -4.7  -4.7 dBFS
[Parsed_ebur128_1 @ 0x782c71f80] t: 3.099979   TARGET:-23 LUFS    M: -45.9 S: -15.7     I: -14.9 LUFS       LRA:  20.0 LU  FTPK: -26.9 -27.1 dBFS  TPK:  -4.7  -4.7 dBFS
[Parsed_ebur128_1 @ 0x782c71f80] t: 3.199979   TARGET:-23 LUFS    M: -21.0 S: -15.8     I: -15.1 LUFS       LRA:  20.0 LU  FTPK:  -9.1  -9.1 dBFS  TPK:  -4.7  -4.7 dBFS
[Parsed_ebur128_1 @ 0x782c71f80] t: 3.299979   TARGET:-23 LUFS    M: -20.9 S: -16.0     I: -15.2 LUFS       LRA:  20.1 LU  FTPK: -13.1 -13.1 dBFS  TPK:  -4.7  -4.7 dBFS
[Parsed_ebur128_1 @ 0x782c71f80] t: 3.399979   TARGET:-23 LUFS    M: -18.9 S: -16.4     I: -15.3 LUFS       LRA:   0.8 LU  FTPK:  -8.5  -8.5 dBFS  TPK:  -4.7  -4.7 dBFS
[Parsed_ebur128_1 @ 0x782c71f80] t: 3.499979   TARGET:-23 LUFS    M: -17.2 S: -17.1     I: -15.3 LUFS       LRA:   1.4 LU  FTPK:  -7.6  -7.6 dBFS  TPK:  -4.7  -4.7 dBFS
[Parsed_ebur128_1 @ 0x782c71f80] t: 3.599979   TARGET:-23 LUFS    M: -17.5 S: -17.5     I: -15.4 LUFS       LRA:   1.9 LU  FTPK: -10.6 -10.6 dBFS  TPK:  -4.7  -4.7 dBFS
[Parsed_ebur128_1 @ 0x782c71f80] t: 3.699979   TARGET:-23 LUFS    M: -16.2 S: -17.6     I: -15.4 LUFS       LRA:   1.9 LU  FTPK:  -8.9  -8.8 dBFS  TPK:  -4.7  -4.7 dBFS
[Parsed_ebur128_1 @ 0x782c71f80] t: 3.799979   TARGET:-23 LUFS    M: -15.6 S: -17.5     I: -15.4 LUFS       LRA:   1.9 LU  FTPK:  -8.5  -8.5 dBFS  TPK:  -4.7  -4.7 dBFS
[Parsed_ebur128_1 @ 0x782c71f80] t: 3.899979   TARGET:-23 LUFS    M: -15.6 S: -17.4     I: -15.4 LUFS       LRA:   1.9 LU  FTPK: -10.2 -10.1 dBFS  TPK:  -4.7  -4.7 dBFS
[Parsed_ebur128_1 @ 0x782c71f80] t: 3.999979   TARGET:-23 LUFS    M: -16.5 S: -17.8     I: -15.5 LUFS       LRA:   2.1 LU  FTPK: -13.3 -13.2 dBFS  TPK:  -4.7  -4.7 dBFS
[Parsed_ebur128_1 @ 0x782c71f80] t: 4.099979   TARGET:-23 LUFS    M: -16.8 S: -18.1     I: -15.5 LUFS       LRA:   2.4 LU  FTPK:  -8.4  -8.3 dBFS  TPK:  -4.7  -4.7 dBFS
[Parsed_ebur128_1 @ 0x782c71f80] t: 4.199979   TARGET:-23 LUFS    M: -16.4 S: -18.1     I: -15.5 LUFS       LRA:   2.4 LU  FTPK:  -8.9  -8.8 dBFS  TPK:  -4.7  -4.7 dBFS
[Parsed_ebur128_1 @ 0x782c71f80] t: 4.299979   TARGET:-23 LUFS    M: -17.6 S: -18.5     I: -15.6 LUFS       LRA:   2.8 LU  FTPK: -20.1 -20.0 dBFS  TPK:  -4.7  -4.7 dBFS
[Parsed_ebur128_1 @ 0x782c71f80] t: 4.399979   TARGET:-23 LUFS    M: -18.0 S: -18.6     I: -15.6 LUFS       LRA:   2.8 LU  FTPK: -46.5 -46.2 dBFS  TPK:  -4.7  -4.7 dBFS
[Parsed_ebur128_1 @ 0x782c71f80] t: 4.499979   TARGET:-23 LUFS    M: -19.7 S: -18.9     I: -15.7 LUFS       LRA:   2.9 LU  FTPK: -48.0 -45.7 dBFS  TPK:  -4.7  -4.7 dBFS
[Parsed_ebur128_1 @ 0x782c71f80] t: 4.599979   TARGET:-23 LUFS    M: -36.4 S: -18.9     I: -15.7 LUFS       LRA:   3.2 LU  FTPK: -47.8 -46.4 dBFS  TPK:  -4.7  -4.7 dBFS
[Parsed_ebur128_1 @ 0x782c71f80] t: 4.699979   TARGET:-23 LUFS    M: -47.5 S: -19.1     I: -15.7 LUFS       LRA:   3.3 LU  FTPK: -27.5 -27.7 dBFS  TPK:  -4.7  -4.7 dBFS
[Parsed_ebur128_1 @ 0x782c71f80] t: 4.799979   TARGET:-23 LUFS    M: -25.6 S: -19.2     I: -15.8 LUFS       LRA:   3.4 LU  FTPK: -11.2 -11.2 dBFS  TPK:  -4.7  -4.7 dBFS
[Parsed_ebur128_1 @ 0x782c71f80] t: 4.899979   TARGET:-23 LUFS    M: -23.2 S: -19.3     I: -15.9 LUFS       LRA:   3.5 LU  FTPK: -12.1 -12.1 dBFS  TPK:  -4.7  -4.7 dBFS
[Parsed_ebur128_1 @ 0x782c71f80] t: 4.999979   TARGET:-23 LUFS    M: -17.8 S: -18.9     I: -15.9 LUFS       LRA:   3.5 LU  FTPK:  -5.7  -5.7 dBFS  TPK:  -4.7  -4.7 dBFS
[Parsed_ebur128_1 @ 0x782c71f80] t: 5.099979   TARGET:-23 LUFS    M: -17.3 S: -18.9     I: -15.9 LUFS       LRA:   3.5 LU  FTPK:  -7.6  -7.7 dBFS  TPK:  -4.7  -4.7 dBFS
[Parsed_ebur128_1 @ 0x782c71f80] t: 5.199979   TARGET:-23 LUFS    M: -16.7 S: -18.6     I: -16.0 LUFS       LRA:   3.5 LU  FTPK:  -4.6  -4.8 dBFS  TPK:  -4.6  -4.7 dBFS
[Parsed_ebur128_1 @ 0x782c71f80] t: 5.299979   TARGET:-23 LUFS    M: -13.5 S: -18.0     I: -15.9 LUFS       LRA:   3.5 LU  FTPK:  -4.6  -4.7 dBFS  TPK:  -4.6  -4.7 dBFS
[Parsed_ebur128_1 @ 0x782c71f80] t: 5.399979   TARGET:-23 LUFS    M: -13.9 S: -17.9     I: -15.8 LUFS       LRA:   3.4 LU  FTPK:  -6.5  -6.9 dBFS  TPK:  -4.6  -4.7 dBFS
[Parsed_ebur128_1 @ 0x782c71f80] t: 5.499979   TARGET:-23 LUFS    M: -14.0 S: -17.9     I: -15.8 LUFS       LRA:   3.4 LU  FTPK:  -7.9  -8.4 dBFS  TPK:  -4.6  -4.7 dBFS
[Parsed_ebur128_1 @ 0x782c71f80] t: 5.599979   TARGET:-23 LUFS    M: -14.5 S: -17.8     I: -15.7 LUFS       LRA:   3.4 LU  FTPK: -15.5 -14.5 dBFS  TPK:  -4.6  -4.7 dBFS
[Parsed_ebur128_1 @ 0x782c71f80] t: 5.699979   TARGET:-23 LUFS    M: -18.4 S: -17.7     I: -15.8 LUFS       LRA:   3.4 LU  FTPK:  -7.2  -7.1 dBFS  TPK:  -4.6  -4.7 dBFS
[Parsed_ebur128_1 @ 0x782c71f80] t: 5.799979   TARGET:-23 LUFS    M: -21.5 S: -17.7     I: -15.9 LUFS       LRA:   3.4 LU  FTPK: -20.6 -19.8 dBFS  TPK:  -4.6  -4.7 dBFS
[Parsed_ebur128_1 @ 0x782c71f80] t: 5.899979   TARGET:-23 LUFS    M: -18.3 S: -17.4     I: -15.9 LUFS       LRA:   3.4 LU  FTPK:  -5.8  -5.8 dBFS  TPK:  -4.6  -4.7 dBFS
[Parsed_ebur128_1 @ 0x782c71f80] t: 5.999979   TARGET:-23 LUFS    M: -16.8 S: -17.2     I: -15.9 LUFS       LRA:   3.3 LU  FTPK:  -7.0  -7.0 dBFS  TPK:  -4.6  -4.7 dBFS
[Parsed_ebur128_1 @ 0x782c71f80] t: 6.099979   TARGET:-23 LUFS    M: -17.7 S: -17.2     I: -15.9 LUFS       LRA:   3.3 LU  FTPK: -17.9 -17.7 dBFS  TPK:  -4.6  -4.7 dBFS
[Parsed_ebur128_1 @ 0x782c71f80] t: 6.199979   TARGET:-23 LUFS    M: -16.9 S: -17.3     I: -15.9 LUFS       LRA:   3.3 LU  FTPK: -11.9 -11.7 dBFS  TPK:  -4.6  -4.7 dBFS
[Parsed_ebur128_1 @ 0x782c71f80] t: 6.299979   TARGET:-23 LUFS    M: -19.2 S: -17.3     I: -16.0 LUFS       LRA:   3.3 LU  FTPK: -14.9 -14.7 dBFS  TPK:  -4.6  -4.7 dBFS
[Parsed_ebur128_1 @ 0x782c71f80] t: 6.399979   TARGET:-23 LUFS    M: -22.7 S: -17.4     I: -16.1 LUFS       LRA:   3.1 LU  FTPK: -40.6 -42.0 dBFS  TPK:  -4.6  -4.7 dBFS
[Parsed_ebur128_1 @ 0x782c71f80] t: 6.499979   TARGET:-23 LUFS    M: -23.1 S: -17.6     I: -16.1 LUFS       LRA:   3.1 LU  FTPK: -42.5 -46.0 dBFS  TPK:  -4.6  -4.7 dBFS
[Parsed_ebur128_1 @ 0x782c71f80] t: 6.599979   TARGET:-23 LUFS    M: -29.0 S: -17.8     I: -16.1 LUFS       LRA:   3.1 LU  FTPK: -44.7 -46.1 dBFS  TPK:  -4.6  -4.7 dBFS
[Parsed_ebur128_1 @ 0x782c71f80] t: 6.699979   TARGET:-23 LUFS    M: -36.1 S: -18.1     I: -16.1 LUFS       LRA:   3.1 LU  FTPK: -16.1 -16.1 dBFS  TPK:  -4.6  -4.7 dBFS
[Parsed_ebur128_1 @ 0x782c71f80] t: 6.799979   TARGET:-23 LUFS    M: -21.7 S: -18.1     I: -16.2 LUFS       LRA:   3.1 LU  FTPK:  -8.7  -8.8 dBFS  TPK:  -4.6  -4.7 dBFS
[Parsed_ebur128_1 @ 0x782c71f80] t: 6.899979   TARGET:-23 LUFS    M: -19.3 S: -18.2     I: -16.2 LUFS       LRA:   3.1 LU  FTPK: -10.1 -10.1 dBFS  TPK:  -4.6  -4.7 dBFS
[Parsed_ebur128_1 @ 0x782c71f80] t: 6.999979   TARGET:-23 LUFS    M: -15.4 S: -17.6     I: -16.2 LUFS       LRA:   3.1 LU  FTPK:  -5.9  -5.9 dBFS  TPK:  -4.6  -4.7 dBFS
[Parsed_ebur128_1 @ 0x782c71f80] t: 7.099979   TARGET:-23 LUFS    M: -13.9 S: -17.4     I: -16.1 LUFS       LRA:   3.1 LU  FTPK:  -4.8  -4.8 dBFS  TPK:  -4.6  -4.7 dBFS
[Parsed_ebur128_1 @ 0x782c71f80] t: 7.199979   TARGET:-23 LUFS    M: -13.7 S: -17.4     I: -16.1 LUFS       LRA:   3.1 LU  FTPK:  -4.8  -4.8 dBFS  TPK:  -4.6  -4.7 dBFS
[Parsed_ebur128_1 @ 0x782c71f80] t: 7.299979   TARGET:-23 LUFS    M: -14.1 S: -17.4     I: -16.1 LUFS       LRA:   3.1 LU  FTPK: -14.0 -14.1 dBFS  TPK:  -4.6  -4.7 dBFS
[Parsed_ebur128_1 @ 0x782c71f80] t: 7.399979   TARGET:-23 LUFS    M: -15.1 S: -17.1     I: -16.0 LUFS       LRA:   3.1 LU  FTPK:  -6.6  -6.6 dBFS  TPK:  -4.6  -4.7 dBFS
[Parsed_ebur128_1 @ 0x782c71f80] t: 7.499979   TARGET:-23 LUFS    M: -17.2 S: -17.1     I: -16.1 LUFS       LRA:   3.1 LU  FTPK: -20.7 -20.7 dBFS  TPK:  -4.6  -4.7 dBFS
[Parsed_ebur128_1 @ 0x782c71f80] t: 7.599979   TARGET:-23 LUFS    M: -18.0 S: -17.0     I: -16.1 LUFS       LRA:   3.1 LU  FTPK: -11.6 -11.7 dBFS  TPK:  -4.6  -4.7 dBFS
[Parsed_ebur128_1 @ 0x782c71f80] t: 7.699979   TARGET:-23 LUFS    M: -16.5 S: -16.7     I: -16.1 LUFS       LRA:   3.1 LU  FTPK:  -7.2  -7.2 dBFS  TPK:  -4.6  -4.7 dBFS
[Parsed_ebur128_1 @ 0x782c71f80] t: 7.799979   TARGET:-23 LUFS    M: -15.4 S: -16.4     I: -16.1 LUFS       LRA:   3.1 LU  FTPK:  -6.2  -6.2 dBFS  TPK:  -4.6  -4.7 dBFS
[Parsed_ebur128_1 @ 0x782c71f80] t: 7.899979   TARGET:-23 LUFS    M: -15.0 S: -16.4     I: -16.1 LUFS       LRA:   3.1 LU  FTPK:  -8.7  -8.7 dBFS  TPK:  -4.6  -4.7 dBFS
[Parsed_ebur128_1 @ 0x782c71f80] t: 7.999979   TARGET:-23 LUFS    M: -14.9 S: -16.5     I: -16.0 LUFS       LRA:   2.9 LU  FTPK:  -7.8  -7.8 dBFS  TPK:  -4.6  -4.7 dBFS
[Parsed_ebur128_1 @ 0x782c71f80] t: 8.099979   TARGET:-23 LUFS    M: -15.9 S: -16.5     I: -16.0 LUFS       LRA:   2.9 LU  FTPK: -11.7 -11.8 dBFS  TPK:  -4.6  -4.7 dBFS
[Parsed_ebur128_1 @ 0x782c71f80] t: 8.199979   TARGET:-23 LUFS    M: -19.4 S: -16.7     I: -16.1 LUFS       LRA:   2.9 LU  FTPK: -12.8 -12.8 dBFS  TPK:  -4.6  -4.7 dBFS
[Parsed_ebur128_1 @ 0x782c71f80] t: 8.299979   TARGET:-23 LUFS    M: -18.0 S: -17.2     I: -16.1 LUFS       LRA:   2.9 LU  FTPK:  -9.7  -9.7 dBFS  TPK:  -4.6  -4.7 dBFS
[Parsed_ebur128_1 @ 0x782c71f80] t: 8.399979   TARGET:-23 LUFS    M: -19.5 S: -17.4     I: -16.1 LUFS       LRA:   2.8 LU  FTPK: -15.4 -15.3 dBFS  TPK:  -4.6  -4.7 dBFS
[Parsed_ebur128_1 @ 0x782c71f80] t: 8.499979   TARGET:-23 LUFS    M: -19.9 S: -17.4     I: -16.2 LUFS       LRA:   2.8 LU  FTPK: -16.1 -16.2 dBFS  TPK:  -4.6  -4.7 dBFS
[Parsed_ebur128_1 @ 0x782c71f80] t: 8.599979   TARGET:-23 LUFS    M: -20.3 S: -17.4     I: -16.2 LUFS       LRA:   2.8 LU  FTPK: -23.4 -23.4 dBFS  TPK:  -4.6  -4.7 dBFS
[Parsed_ebur128_1 @ 0x782c71f80] t: 8.699979   TARGET:-23 LUFS    M: -26.6 S: -17.6     I: -16.2 LUFS       LRA:   2.8 LU  FTPK: -40.2 -41.2 dBFS  TPK:  -4.6  -4.7 dBFS
[Parsed_ebur128_1 @ 0x782c71f80] t: 8.799979   TARGET:-23 LUFS    M: -30.6 S: -17.6     I: -16.2 LUFS       LRA:   2.8 LU  FTPK: -49.1 -51.2 dBFS  TPK:  -4.6  -4.7 dBFS
[Parsed_ebur128_1 @ 0x782c71f80] t: 8.899979   TARGET:-23 LUFS    M: -40.2 S: -17.9     I: -16.2 LUFS       LRA:   2.8 LU  FTPK: -47.0 -51.1 dBFS  TPK:  -4.6  -4.7 dBFS
[Parsed_ebur128_1 @ 0x782c71f80] t: 8.999979   TARGET:-23 LUFS    M: -55.1 S: -18.2     I: -16.2 LUFS       LRA:   2.8 LU  FTPK: -46.4 -50.4 dBFS  TPK:  -4.6  -4.7 dBFS
[Parsed_ebur128_1 @ 0x782c71f80] t: 9.099979   TARGET:-23 LUFS    M: -44.9 S: -18.2     I: -16.2 LUFS       LRA:   2.8 LU  FTPK: -29.4 -28.9 dBFS  TPK:  -4.6  -4.7 dBFS
[Parsed_ebur128_1 @ 0x782c71f80] t: 9.199979   TARGET:-23 LUFS    M: -36.5 S: -18.3     I: -16.2 LUFS       LRA:   2.8 LU  FTPK: -24.0 -24.2 dBFS  TPK:  -4.6  -4.7 dBFS
[Parsed_ebur128_1 @ 0x782c71f80] t: 9.299979   TARGET:-23 LUFS    M: -30.0 S: -18.3     I: -16.2 LUFS       LRA:   2.8 LU  FTPK: -14.4 -14.9 dBFS  TPK:  -4.6  -4.7 dBFS
[Parsed_ebur128_1 @ 0x782c71f80] t: 9.399979   TARGET:-23 LUFS    M: -27.4 S: -18.3     I: -16.2 LUFS       LRA:   2.8 LU  FTPK: -13.3 -13.2 dBFS  TPK:  -4.6  -4.7 dBFS
[Parsed_ebur128_1 @ 0x782c71f80] t: 9.499979   TARGET:-23 LUFS    M: -19.8 S: -18.0     I: -16.3 LUFS       LRA:   2.8 LU  FTPK:  -4.5  -4.2 dBFS  TPK:  -4.5  -4.2 dBFS
[Parsed_ebur128_1 @ 0x782c71f80] t: 9.599979   TARGET:-23 LUFS    M: -17.6 S: -17.7     I: -16.3 LUFS       LRA:   2.8 LU  FTPK:  -7.2  -7.4 dBFS  TPK:  -4.5  -4.2 dBFS
[Parsed_ebur128_1 @ 0x782c71f80] t: 9.699979   TARGET:-23 LUFS    M: -16.7 S: -17.6     I: -16.3 LUFS       LRA:   2.8 LU  FTPK:  -9.0  -9.5 dBFS  TPK:  -4.5  -4.2 dBFS
[Parsed_ebur128_1 @ 0x782c71f80] t: 9.799979   TARGET:-23 LUFS    M: -16.4 S: -17.7     I: -16.3 LUFS       LRA:   2.8 LU  FTPK: -10.2 -10.3 dBFS  TPK:  -4.5  -4.2 dBFS
[Parsed_ebur128_1 @ 0x782c71f80] t: 9.899979   TARGET:-23 LUFS    M: -17.7 S: -17.8     I: -16.3 LUFS       LRA:   2.8 LU  FTPK:  -4.8  -4.8 dBFS  TPK:  -4.5  -4.2 dBFS
[Parsed_ebur128_1 @ 0x782c71f80] t: 9.999979   TARGET:-23 LUFS    M: -18.1 S: -18.2     I: -16.3 LUFS       LRA:   2.5 LU  FTPK:  -6.4  -6.2 dBFS  TPK:  -4.5  -4.2 dBFS
[Parsed_ebur128_1 @ 0x782c71f80] t: 10.099979  TARGET:-23 LUFS    M: -19.5 S: -18.6     I: -16.4 LUFS       LRA:   2.5 LU  FTPK: -14.3 -13.9 dBFS  TPK:  -4.5  -4.2 dBFS
[Parsed_ebur128_1 @ 0x782c71f80] t: 10.199979  TARGET:-23 LUFS    M: -19.4 S: -18.9     I: -16.4 LUFS       LRA:   2.5 LU  FTPK: -13.0 -12.8 dBFS  TPK:  -4.5  -4.2 dBFS
[Parsed_ebur128_1 @ 0x782c71f80] t: 10.299979  TARGET:-23 LUFS    M: -18.1 S: -18.7     I: -16.4 LUFS       LRA:   2.5 LU  FTPK:  -8.9  -8.9 dBFS  TPK:  -4.5  -4.2 dBFS
[Parsed_ebur128_1 @ 0x782c71f80] t: 10.399979  TARGET:-23 LUFS    M: -19.1 S: -18.9     I: -16.4 LUFS       LRA:   2.5 LU  FTPK: -12.5 -12.7 dBFS  TPK:  -4.5  -4.2 dBFS
[Parsed_ebur128_1 @ 0x782c71f80] t: 10.499979  TARGET:-23 LUFS    M: -17.8 S: -18.8     I: -16.4 LUFS       LRA:   2.5 LU  FTPK: -10.5 -10.2 dBFS  TPK:  -4.5  -4.2 dBFS
[Parsed_ebur128_1 @ 0x782c71f80] t: 10.599979  TARGET:-23 LUFS    M: -18.2 S: -18.9     I: -16.5 LUFS       LRA:   2.5 LU  FTPK: -11.4 -11.5 dBFS  TPK:  -4.5  -4.2 dBFS
[Parsed_ebur128_1 @ 0x782c71f80] t: 10.699979  TARGET:-23 LUFS    M: -18.1 S: -19.0     I: -16.5 LUFS       LRA:   2.5 LU  FTPK: -10.5 -10.4 dBFS  TPK:  -4.5  -4.2 dBFS
[Parsed_ebur128_1 @ 0x782c71f80] t: 10.799979  TARGET:-23 LUFS    M: -16.1 S: -19.1     I: -16.5 LUFS       LRA:   2.5 LU  FTPK:  -6.2  -6.0 dBFS  TPK:  -4.5  -4.2 dBFS
[Parsed_ebur128_1 @ 0x782c71f80] t: 10.899979  TARGET:-23 LUFS    M: -15.3 S: -18.9     I: -16.4 LUFS       LRA:   2.5 LU  FTPK:  -6.8  -6.7 dBFS  TPK:  -4.5  -4.2 dBFS
[Parsed_ebur128_1 @ 0x782c71f80] t: 10.999979  TARGET:-23 LUFS    M: -15.5 S: -19.1     I: -16.4 LUFS       LRA:   2.6 LU  FTPK: -20.0 -20.1 dBFS  TPK:  -4.5  -4.2 dBFS
[Parsed_ebur128_1 @ 0x782c71f80] t: 11.099979  TARGET:-23 LUFS    M: -16.7 S: -19.2     I: -16.4 LUFS       LRA:   2.6 LU  FTPK: -35.1 -33.1 dBFS  TPK:  -4.5  -4.2 dBFS
[Parsed_ebur128_1 @ 0x782c71f80] t: 11.199979  TARGET:-23 LUFS    M: -18.7 S: -19.1     I: -16.5 LUFS       LRA:   2.6 LU  FTPK: -10.2 -10.2 dBFS  TPK:  -4.5  -4.2 dBFS
[Parsed_ebur128_1 @ 0x782c71f80] t: 11.299979  TARGET:-23 LUFS    M: -18.4 S: -18.9     I: -16.5 LUFS       LRA:   2.6 LU  FTPK:  -9.7  -9.6 dBFS  TPK:  -4.5  -4.2 dBFS
[Parsed_ebur128_1 @ 0x782c71f80] t: 11.399979  TARGET:-23 LUFS    M: -15.8 S: -18.5     I: -16.5 LUFS       LRA:   2.6 LU  FTPK:  -9.1  -9.1 dBFS  TPK:  -4.5  -4.2 dBFS
[Parsed_ebur128_1 @ 0x782c71f80] t: 11.499979  TARGET:-23 LUFS    M: -14.4 S: -18.1     I: -16.4 LUFS       LRA:   2.6 LU  FTPK:  -9.3  -9.3 dBFS  TPK:  -4.5  -4.2 dBFS
[Parsed_ebur128_1 @ 0x782c71f80] t: 11.599979  TARGET:-23 LUFS    M: -14.5 S: -18.0     I: -16.4 LUFS       LRA:   2.6 LU  FTPK: -11.0 -11.0 dBFS  TPK:  -4.5  -4.2 dBFS
[Parsed_ebur128_1 @ 0x782c71f80] t: 11.699979  TARGET:-23 LUFS    M: -15.6 S: -17.9     I: -16.4 LUFS       LRA:   2.6 LU  FTPK: -14.5 -14.7 dBFS  TPK:  -4.5  -4.2 dBFS
[Parsed_ebur128_1 @ 0x782c71f80] t: 11.799979  TARGET:-23 LUFS    M: -17.2 S: -17.8     I: -16.4 LUFS       LRA:   2.6 LU  FTPK: -11.2 -11.1 dBFS  TPK:  -4.5  -4.2 dBFS
[Parsed_ebur128_1 @ 0x782c71f80] t: 11.899979  TARGET:-23 LUFS    M: -18.6 S: -17.6     I: -16.4 LUFS       LRA:   2.6 LU  FTPK: -11.1 -11.0 dBFS  TPK:  -4.5  -4.2 dBFS
[Parsed_ebur128_1 @ 0x782c71f80] t: 11.999979  TARGET:-23 LUFS    M: -18.9 S: -17.5     I: -16.5 LUFS       LRA:   2.5 LU  FTPK: -10.2 -10.3 dBFS  TPK:  -4.5  -4.2 dBFS
[Parsed_ebur128_1 @ 0x782c71f80] t: 12.099979  TARGET:-23 LUFS    M: -19.4 S: -17.5     I: -16.5 LUFS       LRA:   2.5 LU  FTPK: -14.4 -14.5 dBFS  TPK:  -4.5  -4.2 dBFS
[Parsed_ebur128_1 @ 0x782c71f80] t: 12.199979  TARGET:-23 LUFS    M: -15.9 S: -17.0     I: -16.5 LUFS       LRA:   2.5 LU  FTPK:  -4.8  -4.7 dBFS  TPK:  -4.5  -4.2 dBFS
[Parsed_ebur128_1 @ 0x782c71f80] t: 12.299979  TARGET:-23 LUFS    M: -16.2 S: -16.9     I: -16.5 LUFS       LRA:   2.5 LU  FTPK:  -6.8  -6.9 dBFS  TPK:  -4.5  -4.2 dBFS
[Parsed_ebur128_1 @ 0x782c71f80] t: 12.399979  TARGET:-23 LUFS    M: -16.5 S: -16.9     I: -16.5 LUFS       LRA:   2.5 LU  FTPK: -14.1 -14.0 dBFS  TPK:  -4.5  -4.2 dBFS
[Parsed_ebur128_1 @ 0x782c71f80] t: 12.499979  TARGET:-23 LUFS    M: -16.6 S: -17.2     I: -16.5 LUFS       LRA:   2.5 LU  FTPK: -18.9 -19.1 dBFS  TPK:  -4.5  -4.2 dBFS
[Parsed_ebur128_1 @ 0x782c71f80] t: 12.599979  TARGET:-23 LUFS    M: -23.3 S: -17.4     I: -16.5 LUFS       LRA:   2.5 LU  FTPK: -27.5 -27.8 dBFS  TPK:  -4.5  -4.2 dBFS
[Parsed_ebur128_1 @ 0x782c71f80] t: 12.699979  TARGET:-23 LUFS    M: -26.7 S: -17.5     I: -16.5 LUFS       LRA:   2.5 LU  FTPK: -18.1 -18.0 dBFS  TPK:  -4.5  -4.2 dBFS
[Parsed_ebur128_1 @ 0x782c71f80] t: 12.799979  TARGET:-23 LUFS    M: -29.4 S: -17.6     I: -16.5 LUFS       LRA:   2.5 LU  FTPK: -36.1 -37.8 dBFS  TPK:  -4.5  -4.2 dBFS
[Parsed_ebur128_1 @ 0x782c71f80] t: 12.899979  TARGET:-23 LUFS    M: -31.4 S: -17.7     I: -16.5 LUFS       LRA:   2.5 LU  FTPK: -44.6 -42.8 dBFS  TPK:  -4.5  -4.2 dBFS
[Parsed_ebur128_1 @ 0x782c71f80] t: 12.999979  TARGET:-23 LUFS    M: -31.8 S: -17.9     I: -16.5 LUFS       LRA:   2.5 LU  FTPK: -44.8 -43.9 dBFS  TPK:  -4.5  -4.2 dBFS
[Parsed_ebur128_1 @ 0x782c71f80] t: 13.099979  TARGET:-23 LUFS    M: -49.9 S: -17.9     I: -16.5 LUFS       LRA:   2.5 LU  FTPK: -43.1 -45.7 dBFS  TPK:  -4.5  -4.2 dBFS
[Parsed_ebur128_1 @ 0x782c71f80] t: 13.199979  TARGET:-23 LUFS    M: -35.7 S: -18.0     I: -16.5 LUFS       LRA:   2.5 LU  FTPK: -21.2 -24.6 dBFS  TPK:  -4.5  -4.2 dBFS
[Parsed_ebur128_1 @ 0x782c71f80] t: 13.299979  TARGET:-23 LUFS    M: -27.9 S: -18.2     I: -16.5 LUFS       LRA:   2.5 LU  FTPK: -10.9 -11.2 dBFS  TPK:  -4.5  -4.2 dBFS
[Parsed_ebur128_1 @ 0x782c71f80] t: 13.399979  TARGET:-23 LUFS    M: -23.7 S: -18.2     I: -16.6 LUFS       LRA:   2.5 LU  FTPK: -10.1 -10.0 dBFS  TPK:  -4.5  -4.2 dBFS
[Parsed_ebur128_1 @ 0x782c71f80] t: 13.499979  TARGET:-23 LUFS    M: -19.4 S: -18.1     I: -16.6 LUFS       LRA:   2.5 LU  FTPK:  -8.5  -8.4 dBFS  TPK:  -4.5  -4.2 dBFS
[Parsed_ebur128_1 @ 0x782c71f80] t: 13.599979  TARGET:-23 LUFS    M: -18.2 S: -18.0     I: -16.6 LUFS       LRA:   2.5 LU  FTPK: -11.7 -11.9 dBFS  TPK:  -4.5  -4.2 dBFS
[Parsed_ebur128_1 @ 0x782c71f80] t: 13.699979  TARGET:-23 LUFS    M: -16.6 S: -17.9     I: -16.6 LUFS       LRA:   2.5 LU  FTPK:  -9.2  -9.1 dBFS  TPK:  -4.5  -4.2 dBFS
[Parsed_ebur128_1 @ 0x782c71f80] t: 13.799979  TARGET:-23 LUFS    M: -15.2 S: -18.0     I: -16.6 LUFS       LRA:   2.5 LU  FTPK:  -8.9  -9.0 dBFS  TPK:  -4.5  -4.2 dBFS
[Parsed_ebur128_1 @ 0x782c71f80] t: 13.899979  TARGET:-23 LUFS    M: -14.3 S: -17.8     I: -16.6 LUFS       LRA:   2.5 LU  FTPK:  -6.7  -6.8 dBFS  TPK:  -4.5  -4.2 dBFS
[Parsed_ebur128_1 @ 0x782c71f80] t: 13.999979  TARGET:-23 LUFS    M: -13.4 S: -17.4     I: -16.5 LUFS       LRA:   2.5 LU  FTPK:  -6.9  -6.9 dBFS  TPK:  -4.5  -4.2 dBFS
[Parsed_ebur128_1 @ 0x782c71f80] t: 14.099979  TARGET:-23 LUFS    M: -13.9 S: -17.3     I: -16.5 LUFS       LRA:   2.5 LU  FTPK: -10.1 -10.3 dBFS  TPK:  -4.5  -4.2 dBFS
[Parsed_ebur128_1 @ 0x782c71f80] t: 14.199979  TARGET:-23 LUFS    M: -14.5 S: -17.2     I: -16.5 LUFS       LRA:   2.5 LU  FTPK:  -8.9  -9.0 dBFS  TPK:  -4.5  -4.2 dBFS
[Parsed_ebur128_1 @ 0x782c71f80] t: 14.299979  TARGET:-23 LUFS    M: -15.3 S: -17.3     I: -16.5 LUFS       LRA:   2.5 LU  FTPK:  -6.7  -6.7 dBFS  TPK:  -4.5  -4.2 dBFS
[Parsed_ebur128_1 @ 0x782c71f80] t: 14.399979  TARGET:-23 LUFS    M: -17.7 S: -17.7     I: -16.5 LUFS       LRA:   2.5 LU  FTPK: -14.4 -14.2 dBFS  TPK:  -4.5  -4.2 dBFS
[Parsed_ebur128_1 @ 0x782c71f80] t: 14.499979  TARGET:-23 LUFS    M: -18.4 S: -18.0     I: -16.5 LUFS       LRA:   2.5 LU  FTPK: -24.2 -25.2 dBFS  TPK:  -4.5  -4.2 dBFS
[Parsed_ebur128_1 @ 0x782c71f80] t: 14.599979  TARGET:-23 LUFS    M: -18.7 S: -18.0     I: -16.5 LUFS       LRA:   2.5 LU  FTPK:  -7.0  -7.1 dBFS  TPK:  -4.5  -4.2 dBFS
[Parsed_ebur128_1 @ 0x782c71f80] t: 14.699979  TARGET:-23 LUFS    M: -20.7 S: -17.9     I: -16.5 LUFS       LRA:   2.5 LU  FTPK: -11.6 -11.8 dBFS  TPK:  -4.5  -4.2 dBFS
[Parsed_ebur128_1 @ 0x782c71f80] t: 14.799979  TARGET:-23 LUFS    M: -19.9 S: -18.0     I: -16.5 LUFS       LRA:   2.5 LU  FTPK: -14.2 -14.6 dBFS  TPK:  -4.5  -4.2 dBFS
[Parsed_ebur128_1 @ 0x782c71f80] t: 14.899979  TARGET:-23 LUFS    M: -19.9 S: -18.2     I: -16.5 LUFS       LRA:   2.5 LU  FTPK: -21.9 -21.1 dBFS  TPK:  -4.5  -4.2 dBFS
[Parsed_ebur128_1 @ 0x782c71f80] t: 14.999979  TARGET:-23 LUFS    M: -22.8 S: -18.2     I: -16.6 LUFS       LRA:   2.5 LU  FTPK: -37.7 -36.7 dBFS  TPK:  -4.5  -4.2 dBFS
[Parsed_ebur128_1 @ 0x782c71f80] t: 15.099979  TARGET:-23 LUFS    M: -26.7 S: -18.3     I: -16.6 LUFS       LRA:   2.5 LU  FTPK: -42.7 -40.5 dBFS  TPK:  -4.5  -4.2 dBFS
[Parsed_ebur128_1 @ 0x782c71f80] t: 15.199979  TARGET:-23 LUFS    M: -39.2 S: -19.0     I: -16.6 LUFS       LRA:   2.5 LU  FTPK: -42.7 -42.7 dBFS  TPK:  -4.5  -4.2 dBFS
[Parsed_ebur128_1 @ 0x782c71f80] t: 15.299979  TARGET:-23 LUFS    M: -48.4 S: -19.2     I: -16.6 LUFS       LRA:   2.5 LU  FTPK: -44.1 -41.6 dBFS  TPK:  -4.5  -4.2 dBFS
[Parsed_ebur128_1 @ 0x782c71f80] t: 15.399979  TARGET:-23 LUFS    M: -49.9 S: -19.2     I: -16.6 LUFS       LRA:   2.5 LU  FTPK: -46.9 -44.7 dBFS  TPK:  -4.5  -4.2 dBFS
[Parsed_ebur128_1 @ 0x782c71f80] t: 15.499979  TARGET:-23 LUFS    M: -22.1 S: -18.9     I: -16.6 LUFS       LRA:   2.5 LU  FTPK:  -7.0  -7.0 dBFS  TPK:  -4.5  -4.2 dBFS
[Parsed_ebur128_1 @ 0x782c71f80] t: 15.599979  TARGET:-23 LUFS    M: -20.3 S: -18.8     I: -16.6 LUFS       LRA:   2.5 LU  FTPK:  -7.4  -7.4 dBFS  TPK:  -4.5  -4.2 dBFS
[Parsed_ebur128_1 @ 0x782c71f80] t: 15.699979  TARGET:-23 LUFS    M: -16.5 S: -18.3     I: -16.6 LUFS       LRA:   2.5 LU  FTPK:  -4.8  -4.7 dBFS  TPK:  -4.5  -4.2 dBFS
[Parsed_ebur128_1 @ 0x782c71f80] t: 15.799979  TARGET:-23 LUFS    M: -15.3 S: -18.0     I: -16.6 LUFS       LRA:   2.5 LU  FTPK:  -4.8  -4.7 dBFS  TPK:  -4.5  -4.2 dBFS
[Parsed_ebur128_1 @ 0x782c71f80] t: 15.899979  TARGET:-23 LUFS    M: -14.8 S: -17.7     I: -16.6 LUFS       LRA:   2.5 LU  FTPK:  -7.1  -7.1 dBFS  TPK:  -4.5  -4.2 dBFS
[Parsed_ebur128_1 @ 0x782c71f80] t: 15.999979  TARGET:-23 LUFS    M: -14.4 S: -17.5     I: -16.6 LUFS       LRA:   2.4 LU  FTPK:  -8.7  -8.7 dBFS  TPK:  -4.5  -4.2 dBFS
[Parsed_ebur128_1 @ 0x782c71f80] t: 16.099979  TARGET:-23 LUFS    M: -14.3 S: -17.0     I: -16.6 LUFS       LRA:   2.4 LU  FTPK:  -5.1  -5.1 dBFS  TPK:  -4.5  -4.2 dBFS
[Parsed_ebur128_1 @ 0x782c71f80] t: 16.199979  TARGET:-23 LUFS    M: -14.6 S: -16.9     I: -16.6 LUFS       LRA:   2.4 LU  FTPK:  -9.7  -9.7 dBFS  TPK:  -4.5  -4.2 dBFS
[Parsed_ebur128_1 @ 0x782c71f80] t: 16.299979  TARGET:-23 LUFS    M: -15.8 S: -16.9     I: -16.6 LUFS       LRA:   2.4 LU  FTPK: -16.3 -16.6 dBFS  TPK:  -4.5  -4.2 dBFS
[Parsed_ebur128_1 @ 0x782c71f80] t: 16.399979  TARGET:-23 LUFS    M: -15.6 S: -16.8     I: -16.5 LUFS       LRA:   2.4 LU  FTPK:  -4.6  -4.5 dBFS  TPK:  -4.5  -4.2 dBFS
[Parsed_ebur128_1 @ 0x782c71f80] t: 16.499979  TARGET:-23 LUFS    M: -17.3 S: -16.8     I: -16.5 LUFS       LRA:   2.4 LU  FTPK:  -7.7  -7.6 dBFS  TPK:  -4.5  -4.2 dBFS
[Parsed_ebur128_1 @ 0x782c71f80] t: 16.599979  TARGET:-23 LUFS    M: -17.0 S: -16.8     I: -16.6 LUFS       LRA:   2.4 LU  FTPK:  -7.7  -7.6 dBFS  TPK:  -4.5  -4.2 dBFS
[Parsed_ebur128_1 @ 0x782c71f80] t: 16.699979  TARGET:-23 LUFS    M: -17.2 S: -17.0     I: -16.6 LUFS       LRA:   2.4 LU  FTPK: -14.4 -14.0 dBFS  TPK:  -4.5  -4.2 dBFS
[Parsed_ebur128_1 @ 0x782c71f80] t: 16.799979  TARGET:-23 LUFS    M: -19.0 S: -17.3     I: -16.6 LUFS       LRA:   2.4 LU  FTPK: -13.7 -13.3 dBFS  TPK:  -4.5  -4.2 dBFS
[Parsed_ebur128_1 @ 0x782c71f80] t: 16.899979  TARGET:-23 LUFS    M: -20.8 S: -17.7     I: -16.6 LUFS       LRA:   2.4 LU  FTPK: -12.8 -12.6 dBFS  TPK:  -4.5  -4.2 dBFS
[Parsed_ebur128_1 @ 0x782c71f80] t: 16.999979  TARGET:-23 LUFS    M: -22.6 S: -18.1     I: -16.6 LUFS       LRA:   2.4 LU  FTPK:  -9.7 -10.0 dBFS  TPK:  -4.5  -4.2 dBFS
[Parsed_ebur128_1 @ 0x782c71f80] t: 17.099979  TARGET:-23 LUFS    M: -18.9 S: -17.9     I: -16.6 LUFS       LRA:   2.4 LU  FTPK:  -4.6  -4.8 dBFS  TPK:  -4.5  -4.2 dBFS
[Parsed_ebur128_1 @ 0x782c71f80] t: 17.199979  TARGET:-23 LUFS    M: -18.4 S: -18.0     I: -16.6 LUFS       LRA:   2.4 LU  FTPK:  -7.3  -7.3 dBFS  TPK:  -4.5  -4.2 dBFS
[Parsed_ebur128_1 @ 0x782c71f80] t: 17.299979  TARGET:-23 LUFS    M: -18.6 S: -18.3     I: -16.6 LUFS       LRA:   2.4 LU  FTPK: -16.2 -18.7 dBFS  TPK:  -4.5  -4.2 dBFS
[Parsed_ebur128_1 @ 0x782c71f80] t: 17.399979  TARGET:-23 LUFS    M: -16.0 S: -17.8     I: -16.6 LUFS       LRA:   2.4 LU  FTPK:  -5.3  -5.4 dBFS  TPK:  -4.5  -4.2 dBFS
[Parsed_ebur128_1 @ 0x782c71f80] t: 17.499979  TARGET:-23 LUFS    M: -15.8 S: -17.5     I: -16.6 LUFS       LRA:   2.4 LU  FTPK:  -5.6  -5.7 dBFS  TPK:  -4.5  -4.2 dBFS
[Parsed_ebur128_1 @ 0x782c71f80] t: 17.599979  TARGET:-23 LUFS    M: -15.8 S: -17.6     I: -16.6 LUFS       LRA:   2.4 LU  FTPK: -10.8 -10.4 dBFS  TPK:  -4.5  -4.2 dBFS
[Parsed_ebur128_1 @ 0x782c71f80] t: 17.699979  TARGET:-23 LUFS    M: -15.3 S: -17.5     I: -16.6 LUFS       LRA:   2.4 LU  FTPK: -12.9 -12.3 dBFS  TPK:  -4.5  -4.2 dBFS
[Parsed_ebur128_1 @ 0x782c71f80] t: 17.799979  TARGET:-23 LUFS    M: -18.0 S: -17.6     I: -16.6 LUFS       LRA:   2.4 LU  FTPK: -16.4 -16.2 dBFS  TPK:  -4.5  -4.2 dBFS
[Parsed_ebur128_1 @ 0x782c71f80] t: 17.899979  TARGET:-23 LUFS    M: -21.5 S: -17.6     I: -16.6 LUFS       LRA:   2.4 LU  FTPK: -18.3 -17.8 dBFS  TPK:  -4.5  -4.2 dBFS
[Parsed_ebur128_1 @ 0x782c71f80] t: 17.999979  TARGET:-23 LUFS    M: -20.1 S: -17.4     I: -16.7 LUFS       LRA:   2.4 LU  FTPK: -11.0 -11.2 dBFS  TPK:  -4.5  -4.2 dBFS
[Parsed_ebur128_1 @ 0x782c71f80] t: 18.099979  TARGET:-23 LUFS    M: -22.2 S: -17.4     I: -16.7 LUFS       LRA:   2.4 LU  FTPK: -19.9 -19.6 dBFS  TPK:  -4.5  -4.2 dBFS
[Parsed_ebur128_1 @ 0x782c71f80] t: 18.199979  TARGET:-23 LUFS    M: -22.6 S: -17.4     I: -16.7 LUFS       LRA:   2.4 LU  FTPK: -34.6 -30.6 dBFS  TPK:  -4.5  -4.2 dBFS
[Parsed_ebur128_1 @ 0x782c71f80] t: 18.299979  TARGET:-23 LUFS    M: -22.9 S: -17.4     I: -16.7 LUFS       LRA:   2.4 LU  FTPK: -33.7 -32.1 dBFS  TPK:  -4.5  -4.2 dBFS
[Parsed_ebur128_1 @ 0x782c71f80] t: 18.399979  TARGET:-23 LUFS    M: -36.5 S: -17.4     I: -16.7 LUFS       LRA:   2.4 LU  FTPK: -34.6 -33.0 dBFS  TPK:  -4.5  -4.2 dBFS
[Parsed_ebur128_1 @ 0x782c71f80] t: 18.499979  TARGET:-23 LUFS    M: -22.2 S: -17.4     I: -16.7 LUFS       LRA:   2.4 LU  FTPK:  -9.8  -9.8 dBFS  TPK:  -4.5  -4.2 dBFS
[Parsed_ebur128_1 @ 0x782c71f80] t: 18.599979  TARGET:-23 LUFS    M: -18.0 S: -17.2     I: -16.7 LUFS       LRA:   2.4 LU  FTPK:  -7.3  -7.3 dBFS  TPK:  -4.5  -4.2 dBFS
[Parsed_ebur128_1 @ 0x782c71f80] t: 18.699979  TARGET:-23 LUFS    M: -17.1 S: -17.5     I: -16.8 LUFS       LRA:   2.4 LU  FTPK: -12.5 -11.9 dBFS  TPK:  -4.5  -4.2 dBFS
[Parsed_ebur128_1 @ 0x782c71f80] t: 18.799979  TARGET:-23 LUFS    M: -14.6 S: -17.3     I: -16.7 LUFS       LRA:   2.4 LU  FTPK:  -4.8  -4.8 dBFS  TPK:  -4.5  -4.2 dBFS
[Parsed_ebur128_1 @ 0x782c71f80] t: 18.899979  TARGET:-23 LUFS    M: -14.8 S: -17.4     I: -16.7 LUFS       LRA:   2.4 LU  FTPK:  -8.7  -8.6 dBFS  TPK:  -4.5  -4.2 dBFS
[Parsed_ebur128_1 @ 0x782c71f80] t: 18.999979  TARGET:-23 LUFS    M: -16.4 S: -17.6     I: -16.7 LUFS       LRA:   2.4 LU  FTPK: -17.3 -17.6 dBFS  TPK:  -4.5  -4.2 dBFS
[Parsed_ebur128_1 @ 0x782c71f80] t: 19.099979  TARGET:-23 LUFS    M: -17.1 S: -18.1     I: -16.7 LUFS       LRA:   2.4 LU  FTPK: -27.3 -29.2 dBFS  TPK:  -4.5  -4.2 dBFS
[Parsed_ebur128_1 @ 0x782c71f80] t: 19.199979  TARGET:-23 LUFS    M: -23.5 S: -18.3     I: -16.7 LUFS       LRA:   2.4 LU  FTPK: -33.1 -34.0 dBFS  TPK:  -4.5  -4.2 dBFS
[Parsed_ebur128_1 @ 0x782c71f80] t: 19.299979  TARGET:-23 LUFS    M: -32.8 S: -18.3     I: -16.7 LUFS       LRA:   2.4 LU  FTPK: -22.6 -23.0 dBFS  TPK:  -4.5  -4.2 dBFS
[Parsed_ebur128_1 @ 0x782c71f80] t: 19.399979  TARGET:-23 LUFS    M: -17.4 S: -17.9     I: -16.7 LUFS       LRA:   2.4 LU  FTPK:  -4.6  -4.7 dBFS  TPK:  -4.5  -4.2 dBFS
[Parsed_ebur128_1 @ 0x782c71f80] t: 19.499979  TARGET:-23 LUFS    M: -15.5 S: -17.8     I: -16.7 LUFS       LRA:   2.4 LU  FTPK:  -5.1  -5.0 dBFS  TPK:  -4.5  -4.2 dBFS
[Parsed_ebur128_1 @ 0x782c71f80] t: 19.599979  TARGET:-23 LUFS    M: -15.3 S: -17.9     I: -16.7 LUFS       LRA:   2.4 LU  FTPK: -11.6 -11.4 dBFS  TPK:  -4.5  -4.2 dBFS
[Parsed_ebur128_1 @ 0x782c71f80] t: 19.699979  TARGET:-23 LUFS    M: -15.2 S: -17.9     I: -16.7 LUFS       LRA:   2.4 LU  FTPK: -11.8 -11.7 dBFS  TPK:  -4.5  -4.2 dBFS
[Parsed_ebur128_1 @ 0x782c71f80] t: 19.799979  TARGET:-23 LUFS    M: -18.1 S: -17.8     I: -16.7 LUFS       LRA:   2.4 LU  FTPK: -12.2 -12.2 dBFS  TPK:  -4.5  -4.2 dBFS
[Parsed_ebur128_1 @ 0x782c71f80] t: 19.899979  TARGET:-23 LUFS    M: -21.2 S: -17.8     I: -16.7 LUFS       LRA:   2.4 LU  FTPK: -10.8 -10.8 dBFS  TPK:  -4.5  -4.2 dBFS
[Parsed_ebur128_1 @ 0x782c71f80] t: 19.999979  TARGET:-23 LUFS    M: -18.6 S: -17.6     I: -16.7 LUFS       LRA:   2.3 LU  FTPK:  -8.1  -8.1 dBFS  TPK:  -4.5  -4.2 dBFS
[Parsed_ebur128_1 @ 0x782c71f80] t: 20.099979  TARGET:-23 LUFS    M: -18.7 S: -17.9     I: -16.8 LUFS       LRA:   2.3 LU  FTPK: -14.7 -15.1 dBFS  TPK:  -4.5  -4.2 dBFS
[Parsed_ebur128_1 @ 0x782c71f80] t: 20.199979  TARGET:-23 LUFS    M: -19.2 S: -17.9     I: -16.8 LUFS       LRA:   2.3 LU  FTPK: -11.9 -11.4 dBFS  TPK:  -4.5  -4.2 dBFS
[Parsed_ebur128_1 @ 0x782c71f80] t: 20.299979  TARGET:-23 LUFS    M: -18.5 S: -17.8     I: -16.8 LUFS       LRA:   2.3 LU  FTPK: -12.0 -11.8 dBFS  TPK:  -4.5  -4.2 dBFS
[Parsed_ebur128_1 @ 0x782c71f80] t: 20.399979  TARGET:-23 LUFS    M: -21.6 S: -18.3     I: -16.8 LUFS       LRA:   2.2 LU  FTPK: -23.5 -25.0 dBFS  TPK:  -4.5  -4.2 dBFS
[Parsed_ebur128_1 @ 0x782c71f80] t: 20.499979  TARGET:-23 LUFS    M: -22.1 S: -18.7     I: -16.8 LUFS       LRA:   2.2 LU  FTPK: -34.9 -31.3 dBFS  TPK:  -4.5  -4.2 dBFS
[Parsed_ebur128_1 @ 0x782c71f80] t: 20.599979  TARGET:-23 LUFS    M: -23.6 S: -18.8     I: -16.9 LUFS       LRA:   2.2 LU  FTPK: -35.5 -32.0 dBFS  TPK:  -4.5  -4.2 dBFS
[Parsed_ebur128_1 @ 0x782c71f80] t: 20.699979  TARGET:-23 LUFS    M: -39.2 S: -19.0     I: -16.9 LUFS       LRA:   2.3 LU  FTPK: -37.9 -34.6 dBFS  TPK:  -4.5  -4.2 dBFS
[Parsed_ebur128_1 @ 0x782c71f80] t: 20.799979  TARGET:-23 LUFS    M: -42.0 S: -19.0     I: -16.9 LUFS       LRA:   2.3 LU  FTPK: -38.3 -35.5 dBFS  TPK:  -4.5  -4.2 dBFS
[Parsed_ebur128_1 @ 0x782c71f80] t: 20.899979  TARGET:-23 LUFS    M: -43.3 S: -19.0     I: -16.9 LUFS       LRA:   2.3 LU  FTPK: -39.8 -38.7 dBFS  TPK:  -4.5  -4.2 dBFS
[Parsed_ebur128_1 @ 0x782c71f80] t: 20.999979  TARGET:-23 LUFS    M: -44.3 S: -19.2     I: -16.9 LUFS       LRA:   2.3 LU  FTPK: -38.8 -37.9 dBFS  TPK:  -4.5  -4.2 dBFS
[Parsed_ebur128_1 @ 0x782c71f80] t: 21.099979  TARGET:-23 LUFS    M: -42.3 S: -19.2     I: -16.9 LUFS       LRA:   2.3 LU  FTPK: -28.7 -30.8 dBFS  TPK:  -4.5  -4.2 dBFS
[Parsed_ebur128_1 @ 0x782c71f80] t: 21.199979  TARGET:-23 LUFS    M: -17.8 S: -18.5     I: -16.9 LUFS       LRA:   2.3 LU  FTPK:  -4.2  -4.6 dBFS  TPK:  -4.2  -4.2 dBFS
[Parsed_ebur128_1 @ 0x782c71f80] t: 21.299979  TARGET:-23 LUFS    M: -15.4 S: -18.0     I: -16.8 LUFS       LRA:   2.3 LU  FTPK:  -6.8  -6.9 dBFS  TPK:  -4.2  -4.2 dBFS
[Parsed_ebur128_1 @ 0x782c71f80] t: 21.399979  TARGET:-23 LUFS    M: -13.3 S: -17.4     I: -16.8 LUFS       LRA:   2.3 LU  FTPK:  -4.6  -4.8 dBFS  TPK:  -4.2  -4.2 dBFS
[Parsed_ebur128_1 @ 0x782c71f80] t: 21.499979  TARGET:-23 LUFS    M: -12.9 S: -17.4     I: -16.8 LUFS       LRA:   2.3 LU  FTPK:  -4.5  -4.6 dBFS  TPK:  -4.2  -4.2 dBFS
[Parsed_ebur128_1 @ 0x782c71f80] t: 21.599979  TARGET:-23 LUFS    M: -12.4 S: -17.1     I: -16.7 LUFS       LRA:   2.3 LU  FTPK:  -4.6  -4.7 dBFS  TPK:  -4.2  -4.2 dBFS
[Parsed_ebur128_1 @ 0x782c71f80] t: 21.699979  TARGET:-23 LUFS    M: -13.2 S: -17.1     I: -16.7 LUFS       LRA:   2.3 LU  FTPK:  -6.8  -7.1 dBFS  TPK:  -4.2  -4.2 dBFS
[Parsed_ebur128_1 @ 0x782c71f80] t: 21.799979  TARGET:-23 LUFS    M: -15.2 S: -17.6     I: -16.7 LUFS       LRA:   2.3 LU  FTPK: -18.9 -20.1 dBFS  TPK:  -4.2  -4.2 dBFS
[Parsed_ebur128_1 @ 0x782c71f80] t: 21.899979  TARGET:-23 LUFS    M: -15.0 S: -17.5     I: -16.7 LUFS       LRA:   2.3 LU  FTPK:  -8.6  -8.9 dBFS  TPK:  -4.2  -4.2 dBFS
[Parsed_ebur128_1 @ 0x782c71f80] t: 21.999979  TARGET:-23 LUFS    M: -17.3 S: -17.2     I: -16.7 LUFS       LRA:   2.2 LU  FTPK:  -8.4  -8.6 dBFS  TPK:  -4.2  -4.2 dBFS
[Parsed_ebur128_1 @ 0x782c71f80] t: 22.099979  TARGET:-23 LUFS    M: -17.7 S: -17.2     I: -16.7 LUFS       LRA:   2.2 LU  FTPK: -16.4 -16.8 dBFS  TPK:  -4.2  -4.2 dBFS
[Parsed_ebur128_1 @ 0x782c71f80] t: 22.199979  TARGET:-23 LUFS    M: -17.0 S: -17.1     I: -16.7 LUFS       LRA:   2.2 LU  FTPK:  -8.6  -8.5 dBFS  TPK:  -4.2  -4.2 dBFS
[Parsed_ebur128_1 @ 0x782c71f80] t: 22.299979  TARGET:-23 LUFS    M: -16.3 S: -16.8     I: -16.7 LUFS       LRA:   2.2 LU  FTPK:  -9.0  -8.9 dBFS  TPK:  -4.2  -4.2 dBFS
[Parsed_ebur128_1 @ 0x782c71f80] t: 22.399979  TARGET:-23 LUFS    M: -17.9 S: -17.3     I: -16.7 LUFS       LRA:   2.2 LU  FTPK: -11.1 -11.2 dBFS  TPK:  -4.2  -4.2 dBFS
[Parsed_ebur128_1 @ 0x782c71f80] t: 22.499979  TARGET:-23 LUFS    M: -17.8 S: -17.6     I: -16.7 LUFS       LRA:   2.2 LU  FTPK: -17.4 -17.1 dBFS  TPK:  -4.2  -4.2 dBFS
[Parsed_ebur128_1 @ 0x782c71f80] t: 22.599979  TARGET:-23 LUFS    M: -18.9 S: -17.6     I: -16.7 LUFS       LRA:   2.2 LU  FTPK: -21.4 -21.5 dBFS  TPK:  -4.2  -4.2 dBFS
[Parsed_ebur128_1 @ 0x782c71f80] t: 22.699979  TARGET:-23 LUFS    M: -25.3 S: -17.6     I: -16.7 LUFS       LRA:   2.2 LU  FTPK: -35.3 -37.1 dBFS  TPK:  -4.2  -4.2 dBFS
[Parsed_ebur128_1 @ 0x782c71f80] t: 22.799979  TARGET:-23 LUFS    M: -31.7 S: -17.7     I: -16.7 LUFS       LRA:   2.2 LU  FTPK: -38.2 -39.2 dBFS  TPK:  -4.2  -4.2 dBFS
[Parsed_ebur128_1 @ 0x782c71f80] t: 22.899979  TARGET:-23 LUFS    M: -37.8 S: -17.8     I: -16.7 LUFS       LRA:   2.2 LU  FTPK: -38.4 -40.7 dBFS  TPK:  -4.2  -4.2 dBFS
[Parsed_ebur128_1 @ 0x782c71f80] t: 22.999979  TARGET:-23 LUFS    M: -45.6 S: -18.1     I: -16.7 LUFS       LRA:   2.2 LU  FTPK: -39.1 -39.7 dBFS  TPK:  -4.2  -4.2 dBFS
[Parsed_ebur128_1 @ 0x782c71f80] t: 23.099979  TARGET:-23 LUFS    M: -46.2 S: -18.1     I: -16.7 LUFS       LRA:   2.2 LU  FTPK: -39.1 -39.0 dBFS  TPK:  -4.2  -4.2 dBFS
[Parsed_ebur128_1 @ 0x782c71f80] t: 23.199979  TARGET:-23 LUFS    M: -46.4 S: -18.2     I: -16.7 LUFS       LRA:   2.2 LU  FTPK: -39.4 -38.5 dBFS  TPK:  -4.2  -4.2 dBFS
[Parsed_ebur128_1 @ 0x782c71f80] t: 23.299979  TARGET:-23 LUFS    M: -46.9 S: -18.3     I: -16.7 LUFS       LRA:   2.2 LU  FTPK: -40.4 -41.2 dBFS  TPK:  -4.2  -4.2 dBFS
[Parsed_ebur128_1 @ 0x782c71f80] t: 23.399979  TARGET:-23 LUFS    M: -47.3 S: -18.3     I: -16.7 LUFS       LRA:   2.2 LU  FTPK: -42.2 -39.5 dBFS  TPK:  -4.2  -4.2 dBFS
[Parsed_ebur128_1 @ 0x782c71f80] t: 23.499979  TARGET:-23 LUFS    M: -47.7 S: -18.3     I: -16.7 LUFS       LRA:   2.2 LU  FTPK: -41.1 -41.0 dBFS  TPK:  -4.2  -4.2 dBFS
[Parsed_ebur128_1 @ 0x782c71f80] t: 23.599979  TARGET:-23 LUFS    M: -48.5 S: -18.3     I: -16.7 LUFS       LRA:   2.2 LU  FTPK: -42.6 -43.3 dBFS  TPK:  -4.2  -4.2 dBFS
[Parsed_ebur128_1 @ 0x782c71f80] t: 23.699979  TARGET:-23 LUFS    M: -48.9 S: -18.4     I: -16.7 LUFS       LRA:   2.2 LU  FTPK: -43.8 -44.5 dBFS  TPK:  -4.2  -4.2 dBFS
[Parsed_ebur128_1 @ 0x782c71f80] t: 23.799979  TARGET:-23 LUFS    M: -18.8 S: -17.9     I: -16.7 LUFS       LRA:   2.2 LU  FTPK:  -4.8  -4.8 dBFS  TPK:  -4.2  -4.2 dBFS
[Parsed_ebur128_1 @ 0x782c71f80] t: 23.899979  TARGET:-23 LUFS    M: -14.7 S: -17.2     I: -16.7 LUFS       LRA:   2.2 LU  FTPK:  -4.8  -4.8 dBFS  TPK:  -4.2  -4.2 dBFS
[Parsed_ebur128_1 @ 0x782c71f80] t: 23.999979  TARGET:-23 LUFS    M: -13.9 S: -17.0     I: -16.7 LUFS       LRA:   2.1 LU  FTPK:  -7.4  -7.4 dBFS  TPK:  -4.2  -4.2 dBFS
[Parsed_ebur128_1 @ 0x782c71f80] t: 24.099979  TARGET:-23 LUFS    M: -13.0 S: -16.7     I: -16.7 LUFS       LRA:   2.2 LU  FTPK:  -7.4  -7.5 dBFS  TPK:  -4.2  -4.2 dBFS
[Parsed_ebur128_1 @ 0x782c71f80] t: 24.199979  TARGET:-23 LUFS    M: -13.9 S: -17.1     I: -16.7 LUFS       LRA:   2.2 LU  FTPK:  -9.8 -10.1 dBFS  TPK:  -4.2  -4.2 dBFS
[Parsed_ebur128_1 @ 0x782c71f80] t: 24.299979  TARGET:-23 LUFS    M: -15.4 S: -17.2     I: -16.7 LUFS       LRA:   2.2 LU  FTPK:  -7.1  -6.9 dBFS  TPK:  -4.2  -4.2 dBFS
[Parsed_ebur128_1 @ 0x782c71f80] t: 24.399979  TARGET:-23 LUFS    M: -15.0 S: -17.4     I: -16.6 LUFS       LRA:   2.2 LU  FTPK:  -6.8  -6.8 dBFS  TPK:  -4.2  -4.2 dBFS
[Parsed_ebur128_1 @ 0x782c71f80] t: 24.499979  TARGET:-23 LUFS    M: -15.9 S: -17.5     I: -16.6 LUFS       LRA:   2.2 LU  FTPK: -10.4 -10.2 dBFS  TPK:  -4.2  -4.2 dBFS
[Parsed_ebur128_1 @ 0x782c71f80] t: 24.599979  TARGET:-23 LUFS    M: -16.4 S: -18.2     I: -16.6 LUFS       LRA:   2.2 LU  FTPK: -12.4 -12.4 dBFS  TPK:  -4.2  -4.2 dBFS
[Parsed_ebur128_1 @ 0x782c71f80] t: 24.699979  TARGET:-23 LUFS    M: -17.3 S: -18.1     I: -16.6 LUFS       LRA:   2.2 LU  FTPK:  -4.8  -4.7 dBFS  TPK:  -4.2  -4.2 dBFS
[Parsed_ebur128_1 @ 0x782c71f80] t: 24.799979  TARGET:-23 LUFS    M: -16.0 S: -17.6     I: -16.6 LUFS       LRA:   2.2 LU  FTPK:  -4.7  -4.8 dBFS  TPK:  -4.2  -4.2 dBFS
[Parsed_ebur128_1 @ 0x782c71f80] t: 24.899979  TARGET:-23 LUFS    M: -16.4 S: -17.8     I: -16.6 LUFS       LRA:   2.2 LU  FTPK: -11.8 -12.0 dBFS  TPK:  -4.2  -4.2 dBFS
[Parsed_ebur128_1 @ 0x782c71f80] t: 24.999979  TARGET:-23 LUFS    M: -15.9 S: -18.0     I: -16.6 LUFS       LRA:   2.2 LU  FTPK:  -9.9  -9.9 dBFS  TPK:  -4.2  -4.2 dBFS
[Parsed_ebur128_1 @ 0x782c71f80] t: 25.099979  TARGET:-23 LUFS    M: -16.9 S: -18.0     I: -16.6 LUFS       LRA:   2.2 LU  FTPK: -18.7 -17.9 dBFS  TPK:  -4.2  -4.2 dBFS
[Parsed_ebur128_1 @ 0x782c71f80] t: 25.199979  TARGET:-23 LUFS    M: -21.9 S: -18.1     I: -16.6 LUFS       LRA:   2.2 LU  FTPK: -11.0 -10.9 dBFS  TPK:  -4.2  -4.2 dBFS
[Parsed_ebur128_1 @ 0x782c71f80] t: 25.299979  TARGET:-23 LUFS    M: -18.2 S: -18.1     I: -16.7 LUFS       LRA:   2.2 LU  FTPK:  -5.5  -6.5 dBFS  TPK:  -4.2  -4.2 dBFS
[Parsed_ebur128_1 @ 0x782c71f80] t: 25.399979  TARGET:-23 LUFS    M: -16.4 S: -17.7     I: -16.7 LUFS       LRA:   2.2 LU  FTPK:  -5.2  -5.5 dBFS  TPK:  -4.2  -4.2 dBFS
[Parsed_ebur128_1 @ 0x782c71f80] t: 25.499979  TARGET:-23 LUFS    M: -15.1 S: -17.5     I: -16.6 LUFS       LRA:   2.2 LU  FTPK:  -7.6  -7.8 dBFS  TPK:  -4.2  -4.2 dBFS
frame=  749 fps=0.0 q=-0.0 size=N/A time=00:00:24.96 bitrate=N/A speed=49.9x elapsed=0:00:00.50    [Parsed_ebur128_1 @ 0x782c71f80] t: 25.599979  TARGET:-23 LUFS    M: -14.9 S: -17.4     I: -16.6 LUFS       LRA:   2.2 LU  FTPK:  -7.8  -7.9 dBFS  TPK:  -4.2  -4.2 dBFS
[Parsed_ebur128_1 @ 0x782c71f80] t: 25.699979  TARGET:-23 LUFS    M: -14.6 S: -17.0     I: -16.6 LUFS       LRA:   2.2 LU  FTPK:  -7.8  -7.8 dBFS  TPK:  -4.2  -4.2 dBFS
[Parsed_ebur128_1 @ 0x782c71f80] t: 25.799979  TARGET:-23 LUFS    M: -15.4 S: -16.9     I: -16.6 LUFS       LRA:   2.2 LU  FTPK:  -8.7  -8.1 dBFS  TPK:  -4.2  -4.2 dBFS
[Parsed_ebur128_1 @ 0x782c71f80] t: 25.899979  TARGET:-23 LUFS    M: -15.7 S: -16.7     I: -16.6 LUFS       LRA:   2.2 LU  FTPK:  -8.8  -9.0 dBFS  TPK:  -4.2  -4.2 dBFS
[Parsed_ebur128_1 @ 0x782c71f80] t: 25.999979  TARGET:-23 LUFS    M: -15.7 S: -16.6     I: -16.6 LUFS       LRA:   2.2 LU  FTPK: -12.1 -11.8 dBFS  TPK:  -4.2  -4.2 dBFS
[Parsed_ebur128_1 @ 0x782c71f80] t: 26.099979  TARGET:-23 LUFS    M: -17.0 S: -16.5     I: -16.6 LUFS       LRA:   2.2 LU  FTPK:  -9.9 -10.3 dBFS  TPK:  -4.2  -4.2 dBFS
[Parsed_ebur128_1 @ 0x782c71f80] t: 26.199979  TARGET:-23 LUFS    M: -18.2 S: -16.5     I: -16.6 LUFS       LRA:   2.2 LU  FTPK: -13.6 -13.2 dBFS  TPK:  -4.2  -4.2 dBFS
[Parsed_ebur128_1 @ 0x782c71f80] t: 26.299979  TARGET:-23 LUFS    M: -19.0 S: -16.4     I: -16.6 LUFS       LRA:   2.3 LU  FTPK:  -4.9  -4.7 dBFS  TPK:  -4.2  -4.2 dBFS
[Parsed_ebur128_1 @ 0x782c71f80] t: 26.399979  TARGET:-23 LUFS    M: -17.4 S: -16.2     I: -16.6 LUFS       LRA:   2.3 LU  FTPK:  -4.5  -4.5 dBFS  TPK:  -4.2  -4.2 dBFS
[Parsed_ebur128_1 @ 0x782c71f80] t: 26.499979  TARGET:-23 LUFS    M: -18.9 S: -16.2     I: -16.6 LUFS       LRA:   2.3 LU  FTPK: -26.4 -27.7 dBFS  TPK:  -4.2  -4.2 dBFS
[Parsed_ebur128_1 @ 0x782c71f80] t: 26.599979  TARGET:-23 LUFS    M: -18.9 S: -16.1     I: -16.6 LUFS       LRA:   2.4 LU  FTPK: -17.4 -17.5 dBFS  TPK:  -4.2  -4.2 dBFS
[Parsed_ebur128_1 @ 0x782c71f80] t: 26.699979  TARGET:-23 LUFS    M: -19.3 S: -16.1     I: -16.6 LUFS       LRA:   2.4 LU  FTPK:  -7.1  -7.0 dBFS  TPK:  -4.2  -4.2 dBFS
[Parsed_ebur128_1 @ 0x782c71f80] t: 26.799979  TARGET:-23 LUFS    M: -24.7 S: -16.4     I: -16.7 LUFS       LRA:   2.4 LU  FTPK: -11.7 -11.7 dBFS  TPK:  -4.2  -4.2 dBFS
[Parsed_ebur128_1 @ 0x782c71f80] t: 26.899979  TARGET:-23 LUFS    M: -24.7 S: -17.0     I: -16.7 LUFS       LRA:   2.4 LU  FTPK: -22.3 -23.1 dBFS  TPK:  -4.2  -4.2 dBFS
[Parsed_ebur128_1 @ 0x782c71f80] t: 26.999979  TARGET:-23 LUFS    M: -25.7 S: -17.2     I: -16.7 LUFS       LRA:   2.4 LU  FTPK: -29.6 -28.7 dBFS  TPK:  -4.2  -4.2 dBFS
[Parsed_ebur128_1 @ 0x782c71f80] t: 27.099979  TARGET:-23 LUFS    M: -32.6 S: -17.4     I: -16.7 LUFS       LRA:   2.4 LU  FTPK: -35.9 -33.6 dBFS  TPK:  -4.2  -4.2 dBFS
[Parsed_ebur128_1 @ 0x782c71f80] t: 27.199979  TARGET:-23 LUFS    M: -37.7 S: -17.6     I: -16.7 LUFS       LRA:   2.4 LU  FTPK: -35.9 -35.5 dBFS  TPK:  -4.2  -4.2 dBFS
[Parsed_ebur128_1 @ 0x782c71f80] t: 27.299979  TARGET:-23 LUFS    M: -40.2 S: -17.9     I: -16.7 LUFS       LRA:   2.4 LU  FTPK: -36.6 -32.7 dBFS  TPK:  -4.2  -4.2 dBFS
[Parsed_ebur128_1 @ 0x782c71f80] t: 27.399979  TARGET:-23 LUFS    M: -41.6 S: -18.2     I: -16.7 LUFS       LRA:   2.4 LU  FTPK: -36.7 -35.5 dBFS  TPK:  -4.2  -4.2 dBFS
[Parsed_ebur128_1 @ 0x782c71f80] t: 27.499979  TARGET:-23 LUFS    M: -41.7 S: -18.4     I: -16.7 LUFS       LRA:   2.4 LU  FTPK: -36.0 -34.9 dBFS  TPK:  -4.2  -4.2 dBFS
[Parsed_ebur128_1 @ 0x782c71f80] t: 27.599979  TARGET:-23 LUFS    M: -25.4 S: -18.3     I: -16.7 LUFS       LRA:   2.4 LU  FTPK:  -6.7  -6.9 dBFS  TPK:  -4.2  -4.2 dBFS
[Parsed_ebur128_1 @ 0x782c71f80] t: 27.699979  TARGET:-23 LUFS    M: -18.1 S: -18.0     I: -16.7 LUFS       LRA:   2.4 LU  FTPK:  -4.7  -4.2 dBFS  TPK:  -4.2  -4.2 dBFS
[Parsed_ebur128_1 @ 0x782c71f80] t: 27.799979  TARGET:-23 LUFS    M: -16.4 S: -18.3     I: -16.7 LUFS       LRA:   2.4 LU  FTPK:  -7.9  -8.2 dBFS  TPK:  -4.2  -4.2 dBFS
[Parsed_ebur128_1 @ 0x782c71f80] t: 27.899979  TARGET:-23 LUFS    M: -16.3 S: -18.3     I: -16.7 LUFS       LRA:   2.4 LU  FTPK: -16.0 -17.0 dBFS  TPK:  -4.2  -4.2 dBFS
[Parsed_ebur128_1 @ 0x782c71f80] t: 27.999979  TARGET:-23 LUFS    M: -15.4 S: -18.2     I: -16.7 LUFS       LRA:   2.4 LU  FTPK:  -6.7  -7.0 dBFS  TPK:  -4.2  -4.2 dBFS
[Parsed_ebur128_1 @ 0x782c71f80] t: 28.099979  TARGET:-23 LUFS    M: -16.6 S: -18.0     I: -16.7 LUFS       LRA:   2.4 LU  FTPK:  -8.5  -8.3 dBFS  TPK:  -4.2  -4.2 dBFS
[Parsed_ebur128_1 @ 0x782c71f80] t: 28.199979  TARGET:-23 LUFS    M: -18.3 S: -18.0     I: -16.7 LUFS       LRA:   2.4 LU  FTPK: -19.7 -18.8 dBFS  TPK:  -4.2  -4.2 dBFS
[Parsed_ebur128_1 @ 0x782c71f80] t: 28.299979  TARGET:-23 LUFS    M: -15.6 S: -17.9     I: -16.7 LUFS       LRA:   2.4 LU  FTPK:  -6.8  -6.8 dBFS  TPK:  -4.2  -4.2 dBFS
[Parsed_ebur128_1 @ 0x782c71f80] t: 28.399979  TARGET:-23 LUFS    M: -16.3 S: -18.1     I: -16.7 LUFS       LRA:   2.4 LU  FTPK:  -6.5  -6.6 dBFS  TPK:  -4.2  -4.2 dBFS
[Parsed_ebur128_1 @ 0x782c71f80] t: 28.499979  TARGET:-23 LUFS    M: -17.3 S: -18.4     I: -16.7 LUFS       LRA:   2.4 LU  FTPK: -22.1 -18.4 dBFS  TPK:  -4.2  -4.2 dBFS
[Parsed_ebur128_1 @ 0x782c71f80] t: 28.599979  TARGET:-23 LUFS    M: -17.1 S: -18.5     I: -16.7 LUFS       LRA:   2.4 LU  FTPK: -17.2 -16.8 dBFS  TPK:  -4.2  -4.2 dBFS
[Parsed_ebur128_1 @ 0x782c71f80] t: 28.699979  TARGET:-23 LUFS    M: -22.2 S: -19.0     I: -16.7 LUFS       LRA:   2.4 LU  FTPK: -29.9 -28.3 dBFS  TPK:  -4.2  -4.2 dBFS
[Parsed_ebur128_1 @ 0x782c71f80] t: 28.799979  TARGET:-23 LUFS    M: -28.6 S: -19.3     I: -16.7 LUFS       LRA:   2.4 LU  FTPK: -32.7 -32.3 dBFS  TPK:  -4.2  -4.2 dBFS
[Parsed_ebur128_1 @ 0x782c71f80] t: 28.899979  TARGET:-23 LUFS    M: -29.7 S: -19.6     I: -16.7 LUFS       LRA:   2.4 LU  FTPK: -33.6 -33.6 dBFS  TPK:  -4.2  -4.2 dBFS
[Parsed_ebur128_1 @ 0x782c71f80] t: 28.999979  TARGET:-23 LUFS    M: -38.6 S: -19.8     I: -16.7 LUFS       LRA:   2.5 LU  FTPK: -34.2 -33.9 dBFS  TPK:  -4.2  -4.2 dBFS
[Parsed_ebur128_1 @ 0x782c71f80] t: 29.099979  TARGET:-23 LUFS    M: -29.6 S: -20.0     I: -16.7 LUFS       LRA:   2.5 LU  FTPK: -11.1 -11.4 dBFS  TPK:  -4.2  -4.2 dBFS
[Parsed_ebur128_1 @ 0x782c71f80] t: 29.199979  TARGET:-23 LUFS    M: -18.7 S: -19.4     I: -16.7 LUFS       LRA:   2.5 LU  FTPK:  -4.1  -4.4 dBFS  TPK:  -4.1  -4.2 dBFS
[Parsed_ebur128_1 @ 0x782c71f80] t: 29.299979  TARGET:-23 LUFS    M: -16.6 S: -19.1     I: -16.7 LUFS       LRA:   2.5 LU  FTPK:  -7.1  -6.9 dBFS  TPK:  -4.1  -4.2 dBFS
[Parsed_ebur128_1 @ 0x782c71f80] t: 29.399979  TARGET:-23 LUFS    M: -15.6 S: -19.3     I: -16.7 LUFS       LRA:   2.5 LU  FTPK:  -6.9  -6.8 dBFS  TPK:  -4.1  -4.2 dBFS
[Parsed_ebur128_1 @ 0x782c71f80] t: 29.499979  TARGET:-23 LUFS    M: -15.2 S: -19.1     I: -16.7 LUFS       LRA:   2.5 LU  FTPK:  -9.5  -9.5 dBFS  TPK:  -4.1  -4.2 dBFS
[Parsed_ebur128_1 @ 0x782c71f80] t: 29.599979  TARGET:-23 LUFS    M: -16.4 S: -18.9     I: -16.7 LUFS       LRA:   2.5 LU  FTPK:  -7.4  -7.8 dBFS  TPK:  -4.1  -4.2 dBFS
[Parsed_ebur128_1 @ 0x782c71f80] t: 29.699979  TARGET:-23 LUFS    M: -17.4 S: -18.9     I: -16.7 LUFS       LRA:   2.5 LU  FTPK: -11.4 -11.1 dBFS  TPK:  -4.1  -4.2 dBFS
[Parsed_ebur128_1 @ 0x782c71f80] t: 29.799979  TARGET:-23 LUFS    M: -17.9 S: -18.7     I: -16.7 LUFS       LRA:   2.5 LU  FTPK:  -4.7  -4.7 dBFS  TPK:  -4.1  -4.2 dBFS
[Parsed_ebur128_1 @ 0x782c71f80] t: 29.899979  TARGET:-23 LUFS    M: -17.2 S: -18.4     I: -16.7 LUFS       LRA:   2.5 LU  FTPK:  -4.8  -4.8 dBFS  TPK:  -4.1  -4.2 dBFS
[Parsed_ebur128_1 @ 0x782c71f80] t: 29.999979  TARGET:-23 LUFS    M: -15.5 S: -17.9     I: -16.7 LUFS       LRA:   2.5 LU  FTPK:  -5.5  -5.4 dBFS  TPK:  -4.1  -4.2 dBFS
[Parsed_ebur128_1 @ 0x782c71f80] t: 30.099979  TARGET:-23 LUFS    M: -15.7 S: -17.8     I: -16.7 LUFS       LRA:   2.5 LU  FTPK: -10.6 -10.9 dBFS  TPK:  -4.1  -4.2 dBFS
[Parsed_ebur128_1 @ 0x782c71f80] t: 30.199979  TARGET:-23 LUFS    M: -16.4 S: -17.8     I: -16.7 LUFS       LRA:   2.5 LU  FTPK: -20.2 -20.6 dBFS  TPK:  -4.1  -4.2 dBFS
[Parsed_ebur128_1 @ 0x782c71f80] t: 30.299979  TARGET:-23 LUFS    M: -17.8 S: -17.8     I: -16.7 LUFS       LRA:   2.5 LU  FTPK: -21.4 -21.8 dBFS  TPK:  -4.1  -4.2 dBFS
[Parsed_ebur128_1 @ 0x782c71f80] t: 30.399979  TARGET:-23 LUFS    M: -25.8 S: -17.8     I: -16.7 LUFS       LRA:   2.5 LU  FTPK: -31.0 -29.5 dBFS  TPK:  -4.1  -4.2 dBFS
[Parsed_ebur128_1 @ 0x782c71f80] t: 30.499979  TARGET:-23 LUFS    M: -35.2 S: -17.8     I: -16.7 LUFS       LRA:   2.5 LU  FTPK: -34.6 -35.7 dBFS  TPK:  -4.1  -4.2 dBFS
[Parsed_ebur128_1 @ 0x782c71f80] t: 30.599979  TARGET:-23 LUFS    M: -36.4 S: -17.9     I: -16.7 LUFS       LRA:   2.5 LU  FTPK: -36.8 -36.3 dBFS  TPK:  -4.1  -4.2 dBFS
[Parsed_ebur128_1 @ 0x782c71f80] t: 30.699979  TARGET:-23 LUFS    M: -43.2 S: -18.4     I: -16.7 LUFS       LRA:   2.5 LU  FTPK: -38.6 -37.6 dBFS  TPK:  -4.1  -4.2 dBFS
[Parsed_ebur128_1 @ 0x782c71f80] t: 30.799979  TARGET:-23 LUFS    M: -44.4 S: -18.7     I: -16.7 LUFS       LRA:   2.5 LU  FTPK: -39.7 -37.9 dBFS  TPK:  -4.1  -4.2 dBFS
[Parsed_ebur128_1 @ 0x782c71f80] t: 30.899979  TARGET:-23 LUFS    M: -45.2 S: -18.7     I: -16.7 LUFS       LRA:   2.5 LU  FTPK: -39.3 -39.3 dBFS  TPK:  -4.1  -4.2 dBFS
[Parsed_ebur128_1 @ 0x782c71f80] t: 30.999979  TARGET:-23 LUFS    M: -22.9 S: -18.9     I: -16.7 LUFS       LRA:   2.5 LU  FTPK:  -8.9  -8.9 dBFS  TPK:  -4.1  -4.2 dBFS
[Parsed_ebur128_1 @ 0x782c71f80] t: 31.099979  TARGET:-23 LUFS    M: -18.8 S: -18.8     I: -16.8 LUFS       LRA:   2.5 LU  FTPK:  -6.9  -6.9 dBFS  TPK:  -4.1  -4.2 dBFS
[Parsed_ebur128_1 @ 0x782c71f80] t: 31.199979  TARGET:-23 LUFS    M: -17.5 S: -18.6     I: -16.8 LUFS       LRA:   2.5 LU  FTPK: -10.2 -10.2 dBFS  TPK:  -4.1  -4.2 dBFS
[Parsed_ebur128_1 @ 0x782c71f80] t: 31.299979  TARGET:-23 LUFS    M: -14.6 S: -18.4     I: -16.7 LUFS       LRA:   2.5 LU  FTPK:  -5.0  -4.8 dBFS  TPK:  -4.1  -4.2 dBFS
[Parsed_ebur128_1 @ 0x782c71f80] t: 31.399979  TARGET:-23 LUFS    M: -14.1 S: -18.3     I: -16.7 LUFS       LRA:   2.5 LU  FTPK:  -8.2  -8.1 dBFS  TPK:  -4.1  -4.2 dBFS
[Parsed_ebur128_1 @ 0x782c71f80] t: 31.499979  TARGET:-23 LUFS    M: -13.2 S: -17.6     I: -16.7 LUFS       LRA:   2.5 LU  FTPK:  -5.4  -5.4 dBFS  TPK:  -4.1  -4.2 dBFS
[Parsed_ebur128_1 @ 0x782c71f80] t: 31.599979  TARGET:-23 LUFS    M: -12.6 S: -17.3     I: -16.7 LUFS       LRA:   2.5 LU  FTPK:  -5.6  -5.4 dBFS  TPK:  -4.1  -4.2 dBFS
[Parsed_ebur128_1 @ 0x782c71f80] t: 31.699979  TARGET:-23 LUFS    M: -13.7 S: -17.2     I: -16.7 LUFS       LRA:   2.5 LU  FTPK: -11.0 -10.9 dBFS  TPK:  -4.1  -4.2 dBFS
[Parsed_ebur128_1 @ 0x782c71f80] t: 31.799979  TARGET:-23 LUFS    M: -14.7 S: -17.1     I: -16.7 LUFS       LRA:   2.5 LU  FTPK: -15.2 -15.4 dBFS  TPK:  -4.1  -4.2 dBFS
[Parsed_ebur128_1 @ 0x782c71f80] t: 31.899979  TARGET:-23 LUFS    M: -17.1 S: -17.1     I: -16.7 LUFS       LRA:   2.5 LU  FTPK:  -9.4  -9.3 dBFS  TPK:  -4.1  -4.2 dBFS
[Parsed_ebur128_1 @ 0x782c71f80] t: 31.999979  TARGET:-23 LUFS    M: -19.9 S: -17.0     I: -16.7 LUFS       LRA:   2.4 LU  FTPK:  -9.1  -9.1 dBFS  TPK:  -4.1  -4.2 dBFS
[Parsed_ebur128_1 @ 0x782c71f80] t: 32.099979  TARGET:-23 LUFS    M: -22.4 S: -17.0     I: -16.7 LUFS       LRA:   2.4 LU  FTPK: -20.4 -21.0 dBFS  TPK:  -4.1  -4.2 dBFS
[Parsed_ebur128_1 @ 0x782c71f80] t: 32.199979  TARGET:-23 LUFS    M: -22.9 S: -17.4     I: -16.7 LUFS       LRA:   2.4 LU  FTPK: -24.1 -22.5 dBFS  TPK:  -4.1  -4.2 dBFS
[Parsed_ebur128_1 @ 0x782c71f80] t: 32.299979  TARGET:-23 LUFS    M: -26.0 S: -17.7     I: -16.7 LUFS       LRA:   2.4 LU  FTPK: -22.6 -22.0 dBFS  TPK:  -4.1  -4.2 dBFS
[Parsed_ebur128_1 @ 0x782c71f80] t: 32.399979  TARGET:-23 LUFS    M: -32.8 S: -17.9     I: -16.7 LUFS       LRA:   2.4 LU  FTPK: -35.1 -30.9 dBFS  TPK:  -4.1  -4.2 dBFS
[Parsed_ebur128_1 @ 0x782c71f80] t: 32.499979  TARGET:-23 LUFS    M: -33.9 S: -18.0     I: -16.7 LUFS       LRA:   2.4 LU  FTPK: -37.4 -32.0 dBFS  TPK:  -4.1  -4.2 dBFS
[Parsed_ebur128_1 @ 0x782c71f80] t: 32.599979  TARGET:-23 LUFS    M: -35.4 S: -18.2     I: -16.7 LUFS       LRA:   2.4 LU  FTPK: -36.6 -35.1 dBFS  TPK:  -4.1  -4.2 dBFS
[Parsed_ebur128_1 @ 0x782c71f80] t: 32.699979  TARGET:-23 LUFS    M: -41.2 S: -18.3     I: -16.7 LUFS       LRA:   2.4 LU  FTPK: -37.4 -36.3 dBFS  TPK:  -4.1  -4.2 dBFS
[Parsed_ebur128_1 @ 0x782c71f80] t: 32.799979  TARGET:-23 LUFS    M: -42.2 S: -18.5     I: -16.7 LUFS       LRA:   2.4 LU  FTPK: -36.3 -38.5 dBFS  TPK:  -4.1  -4.2 dBFS
[Parsed_ebur128_1 @ 0x782c71f80] t: 32.899979  TARGET:-23 LUFS    M: -43.2 S: -18.7     I: -16.7 LUFS       LRA:   2.4 LU  FTPK: -39.0 -38.3 dBFS  TPK:  -4.1  -4.2 dBFS
[Parsed_ebur128_1 @ 0x782c71f80] t: 32.999979  TARGET:-23 LUFS    M: -43.7 S: -19.4     I: -16.7 LUFS       LRA:   2.4 LU  FTPK: -38.7 -36.8 dBFS  TPK:  -4.1  -4.2 dBFS
[Parsed_ebur128_1 @ 0x782c71f80] t: 33.099979  TARGET:-23 LUFS    M: -19.2 S: -18.9     I: -16.7 LUFS       LRA:   2.4 LU  FTPK:  -6.8  -7.0 dBFS  TPK:  -4.1  -4.2 dBFS
[Parsed_ebur128_1 @ 0x782c71f80] t: 33.199979  TARGET:-23 LUFS    M: -16.2 S: -18.4     I: -16.7 LUFS       LRA:   2.4 LU  FTPK:  -6.2  -6.8 dBFS  TPK:  -4.1  -4.2 dBFS
[Parsed_ebur128_1 @ 0x782c71f80] t: 33.299979  TARGET:-23 LUFS    M: -14.5 S: -18.0     I: -16.7 LUFS       LRA:   2.4 LU  FTPK:  -6.4  -6.6 dBFS  TPK:  -4.1  -4.2 dBFS
[Parsed_ebur128_1 @ 0x782c71f80] t: 33.399979  TARGET:-23 LUFS    M: -14.0 S: -17.8     I: -16.7 LUFS       LRA:   2.4 LU  FTPK:  -8.2  -7.9 dBFS  TPK:  -4.1  -4.2 dBFS
[Parsed_ebur128_1 @ 0x782c71f80] t: 33.499979  TARGET:-23 LUFS    M: -13.2 S: -17.2     I: -16.7 LUFS       LRA:   2.4 LU  FTPK:  -4.6  -4.4 dBFS  TPK:  -4.1  -4.2 dBFS
[Parsed_ebur128_1 @ 0x782c71f80] t: 33.599979  TARGET:-23 LUFS    M: -14.0 S: -17.1     I: -16.7 LUFS       LRA:   2.4 LU  FTPK:  -7.3  -7.4 dBFS  TPK:  -4.1  -4.2 dBFS
[Parsed_ebur128_1 @ 0x782c71f80] t: 33.699979  TARGET:-23 LUFS    M: -14.1 S: -16.8     I: -16.6 LUFS       LRA:   2.4 LU  FTPK:  -6.5  -6.0 dBFS  TPK:  -4.1  -4.2 dBFS
[Parsed_ebur128_1 @ 0x782c71f80] t: 33.799979  TARGET:-23 LUFS    M: -14.5 S: -16.7     I: -16.6 LUFS       LRA:   2.4 LU  FTPK: -15.4 -14.9 dBFS  TPK:  -4.1  -4.2 dBFS
[Parsed_ebur128_1 @ 0x782c71f80] t: 33.899979  TARGET:-23 LUFS    M: -16.4 S: -16.5     I: -16.6 LUFS       LRA:   2.4 LU  FTPK:  -7.1  -7.0 dBFS  TPK:  -4.1  -4.2 dBFS
[Parsed_ebur128_1 @ 0x782c71f80] t: 33.999979  TARGET:-23 LUFS    M: -16.2 S: -16.6     I: -16.6 LUFS       LRA:   2.4 LU  FTPK: -10.8 -10.5 dBFS  TPK:  -4.1  -4.2 dBFS
[Parsed_ebur128_1 @ 0x782c71f80] t: 34.099979  TARGET:-23 LUFS    M: -18.7 S: -16.8     I: -16.6 LUFS       LRA:   2.4 LU  FTPK: -12.0 -12.3 dBFS  TPK:  -4.1  -4.2 dBFS
[Parsed_ebur128_1 @ 0x782c71f80] t: 34.199979  TARGET:-23 LUFS    M: -17.5 S: -16.7     I: -16.6 LUFS       LRA:   2.4 LU  FTPK:  -9.5  -9.5 dBFS  TPK:  -4.1  -4.2 dBFS
[Parsed_ebur128_1 @ 0x782c71f80] t: 34.299979  TARGET:-23 LUFS    M: -19.8 S: -17.2     I: -16.6 LUFS       LRA:   2.4 LU  FTPK: -15.8 -15.7 dBFS  TPK:  -4.1  -4.2 dBFS
[Parsed_ebur128_1 @ 0x782c71f80] t: 34.399979  TARGET:-23 LUFS    M: -21.4 S: -17.5     I: -16.7 LUFS       LRA:   2.4 LU  FTPK: -11.7 -11.7 dBFS  TPK:  -4.1  -4.2 dBFS
[Parsed_ebur128_1 @ 0x782c71f80] t: 34.499979  TARGET:-23 LUFS    M: -18.4 S: -17.8     I: -16.7 LUFS       LRA:   2.4 LU  FTPK:  -9.1  -9.1 dBFS  TPK:  -4.1  -4.2 dBFS
[Parsed_ebur128_1 @ 0x782c71f80] t: 34.599979  TARGET:-23 LUFS    M: -17.4 S: -17.9     I: -16.7 LUFS       LRA:   2.4 LU  FTPK:  -5.9  -5.8 dBFS  TPK:  -4.1  -4.2 dBFS
[Parsed_ebur128_1 @ 0x782c71f80] t: 34.699979  TARGET:-23 LUFS    M: -15.8 S: -17.8     I: -16.7 LUFS       LRA:   2.4 LU  FTPK:  -6.2  -6.2 dBFS  TPK:  -4.1  -4.2 dBFS
[Parsed_ebur128_1 @ 0x782c71f80] t: 34.799979  TARGET:-23 LUFS    M: -16.1 S: -17.8     I: -16.7 LUFS       LRA:   2.4 LU  FTPK: -20.6 -20.9 dBFS  TPK:  -4.1  -4.2 dBFS
[Parsed_ebur128_1 @ 0x782c71f80] t: 34.899979  TARGET:-23 LUFS    M: -17.7 S: -17.9     I: -16.7 LUFS       LRA:   2.4 LU  FTPK: -37.3 -38.6 dBFS  TPK:  -4.1  -4.2 dBFS
[Parsed_ebur128_1 @ 0x782c71f80] t: 34.999979  TARGET:-23 LUFS    M: -20.8 S: -18.0     I: -16.7 LUFS       LRA:   2.4 LU  FTPK: -40.2 -40.0 dBFS  TPK:  -4.1  -4.2 dBFS
[Parsed_ebur128_1 @ 0x782c71f80] t: 35.099979  TARGET:-23 LUFS    M: -38.0 S: -18.0     I: -16.7 LUFS       LRA:   2.4 LU  FTPK: -43.1 -41.1 dBFS  TPK:  -4.1  -4.2 dBFS
[Parsed_ebur128_1 @ 0x782c71f80] t: 35.199979  TARGET:-23 LUFS    M: -47.9 S: -18.0     I: -16.7 LUFS       LRA:   2.4 LU  FTPK: -45.4 -41.3 dBFS  TPK:  -4.1  -4.2 dBFS
[Parsed_ebur128_1 @ 0x782c71f80] t: 35.299979  TARGET:-23 LUFS    M: -48.8 S: -18.0     I: -16.7 LUFS       LRA:   2.4 LU  FTPK: -43.7 -40.3 dBFS  TPK:  -4.1  -4.2 dBFS
[Parsed_ebur128_1 @ 0x782c71f80] t: 35.399979  TARGET:-23 LUFS    M: -49.3 S: -18.0     I: -16.7 LUFS       LRA:   2.4 LU  FTPK: -43.2 -41.2 dBFS  TPK:  -4.1  -4.2 dBFS
[Parsed_ebur128_1 @ 0x782c71f80] t: 35.499979  TARGET:-23 LUFS    M: -27.5 S: -17.9     I: -16.7 LUFS       LRA:   2.4 LU  FTPK:  -9.7  -9.6 dBFS  TPK:  -4.1  -4.2 dBFS
[Parsed_ebur128_1 @ 0x782c71f80] t: 35.599979  TARGET:-23 LUFS    M: -17.9 S: -17.4     I: -16.7 LUFS       LRA:   2.4 LU  FTPK:  -7.9  -7.8 dBFS  TPK:  -4.1  -4.2 dBFS
[Parsed_ebur128_1 @ 0x782c71f80] t: 35.699979  TARGET:-23 LUFS    M: -16.0 S: -17.2     I: -16.7 LUFS       LRA:   2.4 LU  FTPK:  -6.1  -6.1 dBFS  TPK:  -4.1  -4.2 dBFS
[Parsed_ebur128_1 @ 0x782c71f80] t: 35.799979  TARGET:-23 LUFS    M: -15.1 S: -17.0     I: -16.7 LUFS       LRA:   2.4 LU  FTPK:  -9.5  -9.5 dBFS  TPK:  -4.1  -4.2 dBFS
[Parsed_ebur128_1 @ 0x782c71f80] t: 35.899979  TARGET:-23 LUFS    M: -14.0 S: -16.7     I: -16.7 LUFS       LRA:   2.4 LU  FTPK:  -5.3  -5.2 dBFS  TPK:  -4.1  -4.2 dBFS
[Parsed_ebur128_1 @ 0x782c71f80] t: 35.999979  TARGET:-23 LUFS    M: -15.2 S: -16.6     I: -16.7 LUFS       LRA:   2.4 LU  FTPK:  -7.5  -7.5 dBFS  TPK:  -4.1  -4.2 dBFS
[Parsed_ebur128_1 @ 0x782c71f80] t: 36.099979  TARGET:-23 LUFS    M: -15.5 S: -16.7     I: -16.7 LUFS       LRA:   2.4 LU  FTPK:  -5.7  -5.5 dBFS  TPK:  -4.1  -4.2 dBFS
[Parsed_ebur128_1 @ 0x782c71f80] t: 36.199979  TARGET:-23 LUFS    M: -15.5 S: -16.9     I: -16.7 LUFS       LRA:   2.4 LU  FTPK:  -5.6  -5.8 dBFS  TPK:  -4.1  -4.2 dBFS
[Parsed_ebur128_1 @ 0x782c71f80] t: 36.299979  TARGET:-23 LUFS    M: -16.9 S: -17.1     I: -16.7 LUFS       LRA:   2.4 LU  FTPK: -12.4 -11.9 dBFS  TPK:  -4.1  -4.2 dBFS
[Parsed_ebur128_1 @ 0x782c71f80] t: 36.399979  TARGET:-23 LUFS    M: -15.4 S: -16.9     I: -16.7 LUFS       LRA:   2.4 LU  FTPK:  -8.3  -8.4 dBFS  TPK:  -4.1  -4.2 dBFS
[Parsed_ebur128_1 @ 0x782c71f80] t: 36.499979  TARGET:-23 LUFS    M: -14.5 S: -17.0     I: -16.6 LUFS       LRA:   2.4 LU  FTPK:  -6.3  -6.4 dBFS  TPK:  -4.1  -4.2 dBFS
[Parsed_ebur128_1 @ 0x782c71f80] t: 36.599979  TARGET:-23 LUFS    M: -14.0 S: -16.9     I: -16.6 LUFS       LRA:   2.4 LU  FTPK:  -6.8  -6.8 dBFS  TPK:  -4.1  -4.2 dBFS
[Parsed_ebur128_1 @ 0x782c71f80] t: 36.699979  TARGET:-23 LUFS    M: -14.2 S: -17.1     I: -16.6 LUFS       LRA:   2.4 LU  FTPK: -16.3 -16.2 dBFS  TPK:  -4.1  -4.2 dBFS
[Parsed_ebur128_1 @ 0x782c71f80] t: 36.799979  TARGET:-23 LUFS    M: -16.0 S: -17.2     I: -16.6 LUFS       LRA:   2.4 LU  FTPK: -16.7 -16.6 dBFS  TPK:  -4.1  -4.2 dBFS
[Parsed_ebur128_1 @ 0x782c71f80] t: 36.899979  TARGET:-23 LUFS    M: -19.4 S: -17.4     I: -16.6 LUFS       LRA:   2.4 LU  FTPK: -24.2 -23.9 dBFS  TPK:  -4.1  -4.2 dBFS
[Parsed_ebur128_1 @ 0x782c71f80] t: 36.999979  TARGET:-23 LUFS    M: -28.6 S: -17.5     I: -16.6 LUFS       LRA:   2.4 LU  FTPK: -40.8 -38.7 dBFS  TPK:  -4.1  -4.2 dBFS
[Parsed_ebur128_1 @ 0x782c71f80] t: 37.099979  TARGET:-23 LUFS    M: -33.3 S: -17.6     I: -16.6 LUFS       LRA:   2.4 LU  FTPK: -21.4 -29.0 dBFS  TPK:  -4.1  -4.2 dBFS
[Parsed_ebur128_1 @ 0x782c71f80] t: 37.199979  TARGET:-23 LUFS    M: -33.3 S: -17.7     I: -16.6 LUFS       LRA:   2.4 LU  FTPK: -20.9 -28.1 dBFS  TPK:  -4.1  -4.2 dBFS
[Parsed_ebur128_1 @ 0x782c71f80] t: 37.299979  TARGET:-23 LUFS    M: -32.5 S: -17.7     I: -16.6 LUFS       LRA:   2.4 LU  FTPK: -23.4 -28.5 dBFS  TPK:  -4.1  -4.2 dBFS
[Parsed_ebur128_1 @ 0x782c71f80] t: 37.399979  TARGET:-23 LUFS    M: -31.7 S: -17.8     I: -16.6 LUFS       LRA:   2.4 LU  FTPK: -24.5 -31.1 dBFS  TPK:  -4.1  -4.2 dBFS
[Parsed_ebur128_1 @ 0x782c71f80] t: 37.499979  TARGET:-23 LUFS    M: -31.8 S: -18.0     I: -16.6 LUFS       LRA:   2.4 LU  FTPK: -25.4 -32.3 dBFS  TPK:  -4.1  -4.2 dBFS
[Parsed_ebur128_1 @ 0x782c71f80] t: 37.599979  TARGET:-23 LUFS    M: -23.4 S: -18.2     I: -16.6 LUFS       LRA:   2.4 LU  FTPK: -10.0 -10.7 dBFS  TPK:  -4.1  -4.2 dBFS
[Parsed_ebur128_1 @ 0x782c71f80] t: 37.699979  TARGET:-23 LUFS    M: -22.4 S: -18.5     I: -16.6 LUFS       LRA:   2.4 LU  FTPK:  -9.7  -9.8 dBFS  TPK:  -4.1  -4.2 dBFS
[Parsed_ebur128_1 @ 0x782c71f80] t: 37.799979  TARGET:-23 LUFS    M: -18.7 S: -18.2     I: -16.7 LUFS       LRA:   2.4 LU  FTPK:  -4.7  -4.7 dBFS  TPK:  -4.1  -4.2 dBFS
[Parsed_ebur128_1 @ 0x782c71f80] t: 37.899979  TARGET:-23 LUFS    M: -16.4 S: -17.8     I: -16.7 LUFS       LRA:   2.4 LU  FTPK:  -5.0  -5.0 dBFS  TPK:  -4.1  -4.2 dBFS
[Parsed_ebur128_1 @ 0x782c71f80] t: 37.999979  TARGET:-23 LUFS    M: -16.9 S: -17.8     I: -16.7 LUFS       LRA:   2.3 LU  FTPK:  -9.3  -9.6 dBFS  TPK:  -4.1  -4.2 dBFS
[Parsed_ebur128_1 @ 0x782c71f80] t: 38.099979  TARGET:-23 LUFS    M: -15.7 S: -17.5     I: -16.6 LUFS       LRA:   2.3 LU  FTPK:  -6.1  -6.1 dBFS  TPK:  -4.1  -4.2 dBFS
[Parsed_ebur128_1 @ 0x782c71f80] t: 38.199979  TARGET:-23 LUFS    M: -16.7 S: -17.4     I: -16.6 LUFS       LRA:   2.3 LU  FTPK: -12.3 -12.3 dBFS  TPK:  -4.1  -4.2 dBFS
[Parsed_ebur128_1 @ 0x782c71f80] t: 38.299979  TARGET:-23 LUFS    M: -16.7 S: -17.1     I: -16.6 LUFS       LRA:   2.3 LU  FTPK:  -7.5  -7.5 dBFS  TPK:  -4.1  -4.2 dBFS
[Parsed_ebur128_1 @ 0x782c71f80] t: 38.399979  TARGET:-23 LUFS    M: -14.9 S: -16.8     I: -16.6 LUFS       LRA:   2.3 LU  FTPK:  -6.3  -6.3 dBFS  TPK:  -4.1  -4.2 dBFS
[Parsed_ebur128_1 @ 0x782c71f80] t: 38.499979  TARGET:-23 LUFS    M: -15.1 S: -16.7     I: -16.6 LUFS       LRA:   2.3 LU  FTPK:  -6.9  -6.8 dBFS  TPK:  -4.1  -4.2 dBFS
[Parsed_ebur128_1 @ 0x782c71f80] t: 38.599979  TARGET:-23 LUFS    M: -14.5 S: -16.9     I: -16.6 LUFS       LRA:   2.3 LU  FTPK:  -9.2  -9.1 dBFS  TPK:  -4.1  -4.2 dBFS
[Parsed_ebur128_1 @ 0x782c71f80] t: 38.699979  TARGET:-23 LUFS    M: -14.9 S: -16.9     I: -16.6 LUFS       LRA:   2.3 LU  FTPK:  -8.8  -8.9 dBFS  TPK:  -4.1  -4.2 dBFS
[Parsed_ebur128_1 @ 0x782c71f80] t: 38.799979  TARGET:-23 LUFS    M: -16.6 S: -17.0     I: -16.6 LUFS       LRA:   2.3 LU  FTPK:  -8.4  -8.4 dBFS  TPK:  -4.1  -4.2 dBFS
[Parsed_ebur128_1 @ 0x782c71f80] t: 38.899979  TARGET:-23 LUFS    M: -16.3 S: -17.1     I: -16.6 LUFS       LRA:   2.3 LU  FTPK:  -6.7  -6.7 dBFS  TPK:  -4.1  -4.2 dBFS
[Parsed_ebur128_1 @ 0x782c71f80] t: 38.999979  TARGET:-23 LUFS    M: -17.4 S: -17.2     I: -16.6 LUFS       LRA:   2.3 LU  FTPK: -14.3 -14.2 dBFS  TPK:  -4.1  -4.2 dBFS
[Parsed_ebur128_1 @ 0x782c71f80] t: 39.099979  TARGET:-23 LUFS    M: -17.6 S: -17.2     I: -16.6 LUFS       LRA:   2.3 LU  FTPK:  -7.5  -7.5 dBFS  TPK:  -4.1  -4.2 dBFS
[Parsed_ebur128_1 @ 0x782c71f80] t: 39.199979  TARGET:-23 LUFS    M: -17.1 S: -17.3     I: -16.6 LUFS       LRA:   2.3 LU  FTPK:  -6.8  -6.9 dBFS  TPK:  -4.1  -4.2 dBFS
[Parsed_ebur128_1 @ 0x782c71f80] t: 39.299979  TARGET:-23 LUFS    M: -18.9 S: -17.4     I: -16.6 LUFS       LRA:   2.3 LU  FTPK: -14.5 -14.6 dBFS  TPK:  -4.1  -4.2 dBFS
[Parsed_ebur128_1 @ 0x782c71f80] t: 39.399979  TARGET:-23 LUFS    M: -19.4 S: -17.8     I: -16.6 LUFS       LRA:   2.3 LU  FTPK: -14.5 -14.5 dBFS  TPK:  -4.1  -4.2 dBFS
[Parsed_ebur128_1 @ 0x782c71f80] t: 39.499979  TARGET:-23 LUFS    M: -22.4 S: -18.3     I: -16.6 LUFS       LRA:   2.3 LU  FTPK: -21.5 -21.0 dBFS  TPK:  -4.1  -4.2 dBFS
[Parsed_ebur128_1 @ 0x782c71f80] t: 39.599979  TARGET:-23 LUFS    M: -28.2 S: -18.7     I: -16.6 LUFS       LRA:   2.3 LU  FTPK: -42.5 -43.5 dBFS  TPK:  -4.1  -4.2 dBFS
[Parsed_ebur128_1 @ 0x782c71f80] t: 39.699979  TARGET:-23 LUFS    M: -30.7 S: -18.7     I: -16.6 LUFS       LRA:   2.3 LU  FTPK: -44.5 -46.3 dBFS  TPK:  -4.1  -4.2 dBFS
[Parsed_ebur128_1 @ 0x782c71f80] t: 39.799979  TARGET:-23 LUFS    M: -40.9 S: -18.7     I: -16.6 LUFS       LRA:   2.3 LU  FTPK: -46.6 -48.4 dBFS  TPK:  -4.1  -4.2 dBFS
[Parsed_ebur128_1 @ 0x782c71f80] t: 39.899979  TARGET:-23 LUFS    M: -52.6 S: -18.7     I: -16.6 LUFS       LRA:   2.3 LU  FTPK: -45.0 -48.2 dBFS  TPK:  -4.1  -4.2 dBFS
[Parsed_ebur128_1 @ 0x782c71f80] t: 39.999979  TARGET:-23 LUFS    M: -53.4 S: -18.7     I: -16.6 LUFS       LRA:   2.3 LU  FTPK: -44.8 -50.1 dBFS  TPK:  -4.1  -4.2 dBFS
[Parsed_ebur128_1 @ 0x782c71f80] t: 40.099979  TARGET:-23 LUFS    M: -53.6 S: -18.7     I: -16.6 LUFS       LRA:   2.3 LU  FTPK: -44.5 -48.1 dBFS  TPK:  -4.1  -4.2 dBFS
[Parsed_ebur128_1 @ 0x782c71f80] t: 40.199979  TARGET:-23 LUFS    M: -53.4 S: -18.7     I: -16.6 LUFS       LRA:   2.3 LU  FTPK: -45.0 -47.3 dBFS  TPK:  -4.1  -4.2 dBFS
[Parsed_ebur128_1 @ 0x782c71f80] t: 40.299979  TARGET:-23 LUFS    M: -53.6 S: -18.8     I: -16.6 LUFS       LRA:   2.3 LU  FTPK: -47.1 -47.7 dBFS  TPK:  -4.1  -4.2 dBFS
[Parsed_ebur128_1 @ 0x782c71f80] t: 40.399979  TARGET:-23 LUFS    M: -53.7 S: -18.8     I: -16.6 LUFS       LRA:   2.3 LU  FTPK: -45.0 -48.9 dBFS  TPK:  -4.1  -4.2 dBFS
[Parsed_ebur128_1 @ 0x782c71f80] t: 40.499979  TARGET:-23 LUFS    M: -53.9 S: -18.8     I: -16.6 LUFS       LRA:   2.3 LU  FTPK: -45.9 -48.6 dBFS  TPK:  -4.1  -4.2 dBFS
[Parsed_ebur128_1 @ 0x782c71f80] t: 40.599979  TARGET:-23 LUFS    M: -53.8 S: -18.9     I: -16.6 LUFS       LRA:   2.3 LU  FTPK: -44.2 -47.7 dBFS  TPK:  -4.1  -4.2 dBFS
[Parsed_ebur128_1 @ 0x782c71f80] t: 40.699979  TARGET:-23 LUFS    M: -53.5 S: -19.0     I: -16.6 LUFS       LRA:   2.3 LU  FTPK: -45.3 -46.4 dBFS  TPK:  -4.1  -4.2 dBFS
[Parsed_ebur128_1 @ 0x782c71f80] t: 40.799979  TARGET:-23 LUFS    M: -53.2 S: -19.4     I: -16.6 LUFS       LRA:   2.3 LU  FTPK: -45.6 -46.0 dBFS  TPK:  -4.1  -4.2 dBFS
[Parsed_ebur128_1 @ 0x782c71f80] t: 40.899979  TARGET:-23 LUFS    M: -53.2 S: -19.9     I: -16.6 LUFS       LRA:   2.4 LU  FTPK: -46.6 -48.0 dBFS  TPK:  -4.1  -4.2 dBFS
[Parsed_ebur128_1 @ 0x782c71f80] t: 40.999979  TARGET:-23 LUFS    M: -53.5 S: -20.0     I: -16.6 LUFS       LRA:   2.4 LU  FTPK: -45.5 -49.0 dBFS  TPK:  -4.1  -4.2 dBFS
[Parsed_ebur128_1 @ 0x782c71f80] t: 41.099979  TARGET:-23 LUFS    M: -53.9 S: -20.5     I: -16.6 LUFS       LRA:   2.4 LU  FTPK: -46.0 -51.7 dBFS  TPK:  -4.1  -4.2 dBFS
[Parsed_ebur128_1 @ 0x782c71f80] t: 41.199979  TARGET:-23 LUFS    M: -54.6 S: -20.6     I: -16.6 LUFS       LRA:   2.4 LU  FTPK: -47.1 -51.0 dBFS  TPK:  -4.1  -4.2 dBFS
[Parsed_ebur128_1 @ 0x782c71f80] t: 41.299979  TARGET:-23 LUFS    M: -55.1 S: -21.3     I: -16.6 LUFS       LRA:   2.4 LU  FTPK: -47.9 -50.6 dBFS  TPK:  -4.1  -4.2 dBFS
[Parsed_ebur128_1 @ 0x782c71f80] t: 41.399979  TARGET:-23 LUFS    M: -55.4 S: -22.4     I: -16.6 LUFS       LRA:   2.4 LU  FTPK: -46.2 -50.3 dBFS  TPK:  -4.1  -4.2 dBFS
[Parsed_ebur128_1 @ 0x782c71f80] t: 41.499979  TARGET:-23 LUFS    M: -55.7 S: -23.1     I: -16.6 LUFS       LRA:   2.4 LU  FTPK: -47.1 -50.4 dBFS  TPK:  -4.1  -4.2 dBFS
[Parsed_ebur128_1 @ 0x782c71f80] t: 41.599979  TARGET:-23 LUFS    M: -56.0 S: -24.0     I: -16.6 LUFS       LRA:   2.4 LU  FTPK: -48.4 -52.9 dBFS  TPK:  -4.1  -4.2 dBFS
[Parsed_ebur128_1 @ 0x782c71f80] t: 41.699979  TARGET:-23 LUFS    M: -56.4 S: -25.1     I: -16.6 LUFS       LRA:   2.4 LU  FTPK: -50.5 -53.3 dBFS  TPK:  -4.1  -4.2 dBFS
[Parsed_ebur128_1 @ 0x782c71f80] t: 41.799979  TARGET:-23 LUFS    M: -57.1 S: -25.6     I: -16.6 LUFS       LRA:   2.4 LU  FTPK: -50.6 -52.6 dBFS  TPK:  -4.1  -4.2 dBFS
[Parsed_ebur128_1 @ 0x782c71f80] t: 41.899979  TARGET:-23 LUFS    M: -57.7 S: -27.4     I: -16.6 LUFS       LRA:   2.4 LU  FTPK: -49.4 -51.8 dBFS  TPK:  -4.1  -4.2 dBFS
[Parsed_ebur128_1 @ 0x782c71f80] t: 41.999979  TARGET:-23 LUFS    M: -58.0 S: -28.1     I: -16.6 LUFS       LRA:   2.4 LU  FTPK: -47.6 -53.6 dBFS  TPK:  -4.1  -4.2 dBFS
[Parsed_ebur128_1 @ 0x782c71f80] Summary:

  Integrated loudness:
    I:         -16.6 LUFS
    Threshold: -27.8 LUFS

  Loudness range:
    LRA:         2.4 LU
    Threshold: -37.8 LUFS
    LRA low:   -19.0 LUFS
    LRA high:  -16.6 LUFS

  True peak:
    Peak:       -4.1 dBFS
[out#0/null @ 0x782c70300] video:522KiB audio:7884KiB subtitle:0KiB other streams:0KiB global headers:0KiB muxing overhead: unknown
frame= 1260 fps=0.0 q=-0.0 Lsize=N/A time=00:00:42.00 bitrate=N/A speed=57.6x elapsed=0:00:00.72    
